<svg xmlns="http://www.w3.org/2000/svg" xmlns:xlink="http://www.w3.org/1999/xlink" viewBox="0 0 278.57 282.14"><defs><style>.cls-1{fill:#45464f;}.cls-2{fill:#fff;}.cls-3{fill:#cbcbcb;}.cls-4{fill:url(#Безымянный_градиент_8);}</style><linearGradient id="Безымянный_градиент_8" x1="140.67" y1="89.18" x2="142.53" y2="283.55" gradientUnits="userSpaceOnUse"><stop offset="0" stop-color="#9e0f12"/><stop offset="0.5" stop-color="#d80213"/><stop offset="1" stop-color="#a1010c"/></linearGradient></defs><g id="Слой_2" data-name="Слой 2"><g id="Слой_1-2" data-name="Слой 1"><path class="cls-1" d="M278.57,142.86a139.11,139.11,0,0,1-129.83,139c-3.13.21-6.27.32-9.45.32-1.22,0-2.44,0-3.65-.05A139.28,139.28,0,1,1,278.57,142.86Z"/><path class="cls-2" d="M241.27,48q-18.87,47.67-37.72,95.32c-1.19,3-2.36,6-3.55,9q-13.6,34.41-27.23,68.79-12,30.39-24,60.75c-3.13.21-6.27.32-9.45.32-1.22,0-2.44,0-3.65-.05q-11.88-29.23-23.77-58.49-14.2-35-28.4-69.93c-1.22-3-2.45-6-3.66-9q-20.13-49.51-40.24-99A139.27,139.27,0,0,1,241.27,48Z"/><path class="cls-3" d="M124.12,112.81,83.47,153.67c-1.22-3-2.45-6-3.66-9Q99,127.34,118.09,110Z"/><path class="cls-3" d="M203.55,143.31c-1.19,3-2.36,6-3.55,9l-39.28-39.47c2-.93,4.16-1.86,6.17-2.79C179.16,121.13,191.32,132.22,203.55,143.31Z"/><path class="cls-4" d="M181.23,275.71a138.42,138.42,0,0,1-32.49,6.11c-3.13.21-6.27.32-9.45.32-1.22,0-2.44,0-3.65-.05a138.85,138.85,0,0,1-31.95-4.55l8.18-53.94L127.14,123l-5.43-7.79c-1.21-1.73-2.41-3.48-3.62-5.21,7.58-7.13,15.16-13.42,22.74-20.49a1.35,1.35,0,0,1,1.85,0c8,7.44,16.24,13,24.21,20.49-1.25,1.69-2.49,3.44-3.76,5.21-1.85,2.62-3.73,5.28-5.58,7.79q7.66,48.86,15.22,98.05Q177,248.42,181.23,275.71Z"/><path class="cls-2" d="M77.88,18.91A156.94,156.94,0,0,1,96.48,17c5.65-.24,11.59.36,16.88-2,1.75-.79.23-3.38-1.52-2.59a20.92,20.92,0,0,1-8.06,1.44c-2.93.08-5.85.09-8.77.24a163.07,163.07,0,0,0-17.92,2c-1.9.31-1.1,3.2.79,2.89Z"/><path class="cls-2" d="M104.5,5.34a104.7,104.7,0,0,0-24,7.25,103.37,103.37,0,0,0-20.39,13c-3.63,2.86-7.16,5.85-10.68,8.83l2.12,2.12c4.23-5.47,11.24-6.93,17.4-9.21,5.92-2.2,11.91-5.53,14.19-11.79.48-1.33-1.13-2.21-2.21-1.69l-12.24,6,1.51,2.59C78,18.6,85.86,15,93.87,11.74q5.86-2.41,11.82-4.65,3-1.14,6.07-2.23l2.94-1,1.36-.47c.56-.2.87,0,.34-.63-1.13-1.33-.16-.39-.36-.29a5.25,5.25,0,0,0-.28.54,6.49,6.49,0,0,1-1.29,1,20.17,20.17,0,0,1-2.6,1.57,19.53,19.53,0,0,1-6,1.83l1.7,2.21.77-1.51c.87-1.72-1.72-3.24-2.59-1.52L105,8.09a1.52,1.52,0,0,0,1.69,2.2,22,22,0,0,0,6.18-1.86,16.91,16.91,0,0,0,5.23-3.52c1-1.09,1.51-3.21.34-4.36a2.19,2.19,0,0,0-2-.49,35.65,35.65,0,0,0-3.84,1.34Q98.24,6.46,84.33,12.55,76.43,16,68.67,19.8c-1.74.85-.22,3.43,1.51,2.59l12.25-5.95-2.2-1.7c-2.14,5.87-8.69,8.57-14.15,10.42-6,2-12.62,4-16.67,9.26a1.5,1.5,0,0,0,2.12,2.12A210.91,210.91,0,0,1,70.19,21.89,81.53,81.53,0,0,1,91.79,11.5a127.54,127.54,0,0,1,13.5-3.26c1.9-.37,1.1-3.26-.79-2.9Z"/><path class="cls-2" d="M109.66,8.45c17.07-4.18,35.19-7.35,52.5-2.63l-.9-2.2a.49.49,0,0,1-.49.18,1.56,1.56,0,0,0-2.06.54,1.51,1.51,0,0,0,.54,2.05,3.58,3.58,0,0,0,4.6-1.26,1.5,1.5,0,0,0-.89-2.2c-17.83-4.87-36.5-1.68-54.1,2.63-1.87.46-1.08,3.35.8,2.89Z"/><path class="cls-2" d="M137.16,5.36a13.28,13.28,0,0,1,6-.91c2.25,0,4.5.2,6.74.36q6.74.48,13.42,1.39a209.65,209.65,0,0,1,26.74,5.52,1.5,1.5,0,0,0,.8-2.89,211.49,211.49,0,0,0-28.09-5.7q-7.12-1-14.3-1.42c-4.28-.28-8.8-.8-12.82,1.06-1.75.81-.22,3.4,1.52,2.59Z"/><path class="cls-2" d="M172.54,8.88c18.82,2.3,35.67,12.22,50.38,23.67,4.21,3.28,8.29,6.72,12.31,10.23,1.44,1.27,3.57-.85,2.12-2.12C222.8,27.92,207,15.78,188.44,9.5a78.79,78.79,0,0,0-15.9-3.62c-1.91-.24-1.89,2.76,0,3Z"/><path class="cls-2" d="M235.61,44l2.31,3.53A1.5,1.5,0,0,0,240.51,46L238.2,42.5a1.62,1.62,0,0,0-.89-.69,1.57,1.57,0,0,0-1.16.16,1.5,1.5,0,0,0-.69.89,1.56,1.56,0,0,0,.15,1.16Z"/><path class="cls-2" d="M51.27,34.63A23.7,23.7,0,0,0,45,38.42c-2.05,1.62-4,3.31-6.06,5A1.5,1.5,0,1,0,41,45.51c1.91-1.57,3.81-3.17,5.74-4.72a20,20,0,0,1,5.31-3.26,1.55,1.55,0,0,0,1-1.85,1.51,1.51,0,0,0-1.84-1Z"/></g></g></svg>