<?xml version="1.0" encoding="utf-8"?>
<!-- Generator: Adobe Illustrator 18.0.0, SVG Export Plug-In . SVG Version: 6.00 Build 0)  -->
<!DOCTYPE svg PUBLIC "-//W3C//DTD SVG 1.1//EN" "http://www.w3.org/Graphics/SVG/1.1/DTD/svg11.dtd">
<svg version="1.1" id="Layer_1" xmlns="http://www.w3.org/2000/svg" xmlns:xlink="http://www.w3.org/1999/xlink" x="0px" y="0px"
	 viewBox="0 0 841.9 595.3" enable-background="new 0 0 841.9 595.3" xml:space="preserve">
<g>
	
		<polygon fill-rule="evenodd" clip-rule="evenodd" fill="#FFFFFF" stroke="#FFFFFF" stroke-width="0.2284" stroke-miterlimit="10" points="
		247,410.3 357.2,84.3 438.7,84.4 328.5,410.4 	"/>
	<polygon fill-rule="evenodd" clip-rule="evenodd" fill="#E93E3B" points="586.8,175.7 498.3,175.6 385.9,508.4 474.4,508.5 	"/>
	<path fill-rule="evenodd" clip-rule="evenodd" fill="#0B7DBC" d="M438.7,84.3h-81.5L247,410.3l81.5,0.1L438.7,84.3z M515.9,128.4
		L515.9,128.4L403.5,461.1L315,461l14.8-43.9l-87.4-0.1h-4.6l1.5-4.4L351.7,79.9l0.7-2.3h2.4l88.5,0.1h4.6l-1.4,4.4l-15.7,46.2
		L515.9,128.4z"/>
	<polygon fill-rule="evenodd" clip-rule="evenodd" fill="#FFFFFF" points="230,241.5 637.9,241.5 602.5,347.3 194.6,347.3 	"/>
	<polygon fill-rule="evenodd" clip-rule="evenodd" fill="#0B7DBC" points="433.7,247.7 528.6,247.7 497.4,341.1 402.5,341.1 	"/>
	<polygon fill-rule="evenodd" clip-rule="evenodd" fill="#0B7DBC" points="333.6,247.7 428.4,247.7 397.2,341.1 302.3,341.1 	"/>
	<polygon fill-rule="evenodd" clip-rule="evenodd" fill="#0B7DBC" points="234.5,247.7 329.3,247.7 298.1,341.1 203.3,341.1 	"/>
	<path fill-rule="evenodd" clip-rule="evenodd" fill="#FFFFFF" d="M415.8,255.9l-4.7,13.5c-35.8-1.3-54.9,1.5-61.4,24.1
		c-7.3,24.1,15.1,26.3,45.4,25.8l-5.1,14.2c-49.7,1.4-76.9-2.3-64.2-40.1C339.7,251.9,366.9,255.9,415.8,255.9L415.8,255.9z"/>
	<polygon fill-rule="evenodd" clip-rule="evenodd" fill="#0B7DBC" points="534.4,247.7 629.2,247.7 598,341.1 503.1,341.1 	"/>
	<polygon fill-rule="evenodd" clip-rule="evenodd" fill="#FFFFFF" points="440,255.9 412.4,333.6 438.7,333.6 460,269.6 
		486.6,269.6 464.6,333.6 490.9,333.6 517.3,255.9 	"/>
	<polygon fill-rule="evenodd" clip-rule="evenodd" fill="#FFFFFF" points="540.3,255.9 512.9,333.6 539.2,333.6 560.5,269.4 
		587.1,269.5 565.1,333.6 591.4,333.6 617.8,255.9 	"/>
	<path fill-rule="evenodd" clip-rule="evenodd" fill="#FFFFFF" d="M241.7,255.9l-27,77.7h25.6l8.3-24.3c38.7,0.1,55.4-0.7,58.9-26.5
		c2.8-19.8-7.7-27.3-40.5-26.8H241.7z M253.9,293.8L253.9,293.8l8.6-25c13.1-0.6,20.1,2.1,20.7,10.4
		C283,292,272.5,294.5,253.9,293.8L253.9,293.8z"/>
</g>
</svg>
