<?xml version="1.0" encoding="UTF-8" standalone="no"?>
<!-- Created with Inkscape (http://www.inkscape.org/) -->

<svg
   xmlns:dc="http://purl.org/dc/elements/1.1/"
   xmlns:cc="http://creativecommons.org/ns#"
   xmlns:rdf="http://www.w3.org/1999/02/22-rdf-syntax-ns#"
   xmlns:svg="http://www.w3.org/2000/svg"
   xmlns="http://www.w3.org/2000/svg"
   xmlns:sodipodi="http://sodipodi.sourceforge.net/DTD/sodipodi-0.dtd"
   xmlns:inkscape="http://www.inkscape.org/namespaces/inkscape"
   version="1.0"
   width="1091.9919"
   height="630.11902"
   viewBox="0 0 1091.992 630.119"
   id="svg2"
   inkscape:version="0.91 r13725"
   sodipodi:docname="Federal_cities_of_Russia (fixed).svg">
  <sodipodi:namedview
     pagecolor="#ffffff"
     bordercolor="#666666"
     borderopacity="1"
     objecttolerance="10"
     gridtolerance="10"
     guidetolerance="10"
     inkscape:pageopacity="0"
     inkscape:pageshadow="2"
     inkscape:window-width="1366"
     inkscape:window-height="705"
     id="namedview4764"
     showgrid="false"
     inkscape:zoom="2.329645"
     inkscape:cx="94.876237"
     inkscape:cy="221.51482"
     inkscape:window-x="-8"
     inkscape:window-y="-8"
     inkscape:window-maximized="1"
     inkscape:current-layer="g12794" />
  <defs
     id="defs558" />
  <style
     type="text/css"
     id="style3390" />
  <metadata
     id="metadata1880">
    <rdf:RDF>
      <cc:Work
         rdf:about="">
        <dc:title />
        <dc:date>16-04-2008</dc:date>
        <dc:creator>
          <cc:Agent>
            <dc:title>Lokal_Profil</dc:title>
          </cc:Agent>
        </dc:creator>
        <cc:license
           rdf:resource="http://creativecommons.org/licenses/by-sa/2.5/" />
        <dc:rights>
          <cc:Agent>
            <dc:title>cc-by-sa-2.5</dc:title>
          </cc:Agent>
        </dc:rights>
        <dc:format>image/svg+xml</dc:format>
        <dc:type
           rdf:resource="http://purl.org/dc/dcmitype/StillImage" />
      </cc:Work>
      <cc:License
         rdf:about="http://creativecommons.org/licenses/by-sa/2.5/">
        <cc:permits
           rdf:resource="http://web.resource.org/cc/Reproduction" />
        <cc:permits
           rdf:resource="http://web.resource.org/cc/Distribution" />
        <cc:requires
           rdf:resource="http://web.resource.org/cc/Notice" />
        <cc:requires
           rdf:resource="http://web.resource.org/cc/Attribution" />
        <cc:permits
           rdf:resource="http://web.resource.org/cc/DerivativeWorks" />
        <cc:requires
           rdf:resource="http://web.resource.org/cc/ShareAlike" />
      </cc:License>
    </rdf:RDF>
  </metadata>
  <g
     transform="translate(26.000002,8.0000247)"
     id="SA3"
     style="fill:#800080;fill-opacity:1;stroke:#000000" />
  <g
     transform="translate(26.000002,8.0000247)"
     id="use4237"
     style="fill:#800080;fill-opacity:1;stroke:#000000" />
  <g
     id="g12794">
    <g
       style="fill:#b3b3b3;fill-opacity:1"
       transform="translate(1047.0434,1509.6777)"
       id="g5041">
      <g
         transform="translate(-1021.0463,-1501.6779)"
         id="Other_State_Boundarys-1"
         style="opacity:0;fill:#b3b3b3;fill-opacity:1;stroke:#000000">
        <path
           style="fill:#b3b3b3;fill-opacity:1"
           inkscape:connector-curvature="0"
           d="m 209.667,164.62 3.833,-0.333 7.333,-1.167 4.667,1.667 6.833,0 1.833,2.5 3.667,0 2.25,2.25 0.417,4.917 -2.333,2.333 -1.917,1.917 0.083,1.583 -1.833,0 -1.897,1.153 4.897,1.847 2.834,0 2.333,2.333 2.862,-1.994 1.949,-1.354 2.696,-0.916 0.203,-1.526 2.544,0.051 0.305,-3.866 -1.221,-0.865 -1.831,-1.831 c 0,0 0.658,-6.449 0.242,-6.449 -0.416,0 -2.25,-3.667 -2.25,-3.667 L 246,158.87 l -2.667,-0.417 -2.667,0.833 -4.333,-1.833 -5,-5.583 -4.167,-1.167 -4.166,-3.333 -3.083,-2.25 -3.917,-3.417 -3,0 -0.5,-3 1.667,-1.5 1.417,-2.667 -1.167,-1.75 -3.167,0.333 -2.333,-0.417 -1.25,1.667 -1.833,1.833 -3.834,-0.332 -2,-1.833 -2.333,-0.667 -2.833,0 -0.834,-2.667 -1.167,-2.5 -2.5,-0.333 -1.5,-1 c 0,0 -12.125,-0.875 -12.417,-0.583 -0.292,0.292 -2.083,1.583 -2.083,1.583 l -3.417,1.167 -1.5,2.333 -4.75,1.833 -9.917,0 -2.25,-2.5 -1.417,0.083 -1.5,-1.5 -1.667,2.417 -2.167,0.417 -0.917,1.333 -4,0.25 -1.417,-1.417 -3.083,0.417 -4.25,0.417 -1.167,0.917 -3.167,-1.167 -2.5,-1.417 -17.333,0.833 -1.25,-1.583 -3.25,-0.083 -3.583,-3.5 -1.917,-1.917 -3.333,0 -1,-2.167 -3.583,-0.5 -4.083,-3.083 -7.915,-0.916 -2,-1.583 -2.667,-2.333 -1.583,-3.083 -1.625,-1.625 -2.375,0.958 -2.167,-1.417 -2.417,0 -1.25,1.25 -1.416,-0.084 -0.75,2.333 0,1.667 -3.083,-0.5 -5,0.417 -3.417,3.417 -2.417,0.417 -0.667,2.417 -1.917,1.667 -2.667,0.333 -0.167,1.333 -8.083,-0.667 -0.083,4.25 1.5,0.5 0.251,3.166 -1.167,1.917 -1.75,-0.417 0,-2.333 -1.583,-0.417 -0.917,-0.917 -3.417,0.25 -1.208,1.208 -1.75,1.75 -2.25,2.25 -0.958,2.292 0.5,2.833 -1.667,2.167 -0.25,2.167 0.333,3.5 1.667,1.667 1.667,2.75 1.375,1.375 0.667,0.667 0.208,1.791 2.667,0.667 2.667,0.583 2.583,1.25 4.5,-0.167 0.75,1.667 2.75,0.5 2.333,0 2.083,1.75 1.833,1.75 0.667,2.25 4.417,-2 2.75,0 3.25,-3.25 3.375,-3.375 4.125,0 2.438,-2.438 4.563,-2.438 6.75,-2.5 7,-2 3.75,0 3.75,-1.5 4.75,-2.75 6.75,0.5 7,0 7.75,-2.75 8,0 7.5,1.75 10,0 8,0 4,0.5 3.875,3.875 7.625,-0.375 6.75,0 3.75,0.75 10,1 3.625,3.625 3.625,1.125 3.75,0 6,1.75 1.875,1.875 1.348,1.436 -0.426,1.327 0,2.127 1.619,2.236 z"
           id="NO-2" />
        <path
           style="fill:#b3b3b3;fill-opacity:1"
           inkscape:connector-curvature="0"
           d="m 34.828,279.311 5.558,-2.806 1.165,-2.435 -0.476,-3.229 -1.324,-0.9 -1.323,-2.17 0.317,-2.488 0,-2.858 -2.276,-1.905 -0.715,-0.715 1.346,-0.437 1.404,0.83 1.404,0.447 1.596,-0.447 0.894,-2.809 2.043,-0.319 2.043,-2.043 1.34,-1.34 6.128,3.064 1.788,3.575 2.553,1.724 0.447,2.298 1.852,3.064 1.245,1.245 0.797,2.777 0.894,2.426 2.17,1.085 3,0.958 0,1.404 -0.958,1.979 -1.213,0.447 0.734,0.734 1.34,1.34 0.926,2.394 -1.309,1.309 0,3.543 1.133,1.133 -0.846,2.059 -1.276,2.617 -1.852,0.766 -0.447,2.745 -2.49,-0.255 -1.468,-0.958 -0.734,-0.734 -1.308,0.351 -2.171,-0.83 -2.362,-0.575 -2.234,1.851 -2.042,0.447 -1.213,1.405 -1.532,1.787 -1.468,-2.553 c 0,0 -1.34,-1.724 -1.724,-1.724 -0.384,0 -2.809,0.383 -2.809,0.383 l -1.66,-1.66 -2.362,-1.34 -2.043,-2.937 -2.873,-1.596 2.553,-2.554 1.085,-2.042 -0.958,-3.128 -0.289,-2.4 z"
           id="LT-1" />
        <path
           style="fill:#b3b3b3;fill-opacity:1"
           inkscape:connector-curvature="0"
           d="m 67.231,294.861 1.276,-2.617 0.846,-2.059 -1.133,-1.133 0,-3.543 1.309,-1.309 -0.926,-2.394 -1.34,-1.34 -0.734,-0.734 1.213,-0.447 0.958,-1.979 0,-1.404 -3,-0.958 -2.17,-1.085 -0.894,-2.426 -0.797,-2.777 -1.245,-1.245 -1.852,-3.064 -0.447,-2.298 -2.553,-1.724 -1.788,-3.575 -6.128,-3.064 2.092,-0.65 1.417,0.417 1.125,-1.125 1.125,-2.042 1.833,-0.5 0.582,-1.166 2.417,0.417 2.75,-0.083 1.25,-1.417 2.75,-0.583 4,0 0,1.667 1.917,0.333 2.417,0.833 -0.5,2 -2.5,1.333 0.5,1.667 0,2.083 0.417,1.75 -1.625,1.625 -1.208,1.792 1.083,1.083 0,1 1.583,1.583 1.5,0.334 3.333,0.917 2.167,-1.167 1.75,-2.75 2.083,-0.667 1.125,-1.125 2.375,0 2.437,2.437 c 0,0 0.979,2.021 0.979,2.354 0,0.333 -0.25,2.833 -0.25,2.833 l 1.5,2.583 -1.417,2.667 0.667,2.417 2,0.833 1.25,1.917 0.417,3.667 0,3.5 -4,2.5 -2.667,0.667 0.833,3 -1.833,3.333 -3.167,3.167 -1.083,-0.833 -2.083,0 -3.167,-1.084 -0.75,1.917 -2,-0.333 -0.25,-2.334 -1.083,-1.083 -2.083,0 -2.603,-0.509 z"
           id="LV-4" />
        <g
           style="fill:#b3b3b3;fill-opacity:1"
           id="EE-9">
          <polygon
             style="fill:#b3b3b3;fill-opacity:1"
             points="74.542,245.328 76.75,244.12 78.167,242.453 79.583,241.037 80.833,241.037 81.167,242.62 82.833,243.953 84.833,243.203 84.417,244.87 85.5,245.953 85.5,248.037 84.417,249.037 82.583,247.62 81.667,248.537 79.917,246.453 78.875,245.412 77.917,245.703 77.917,245.703 75.75,246.537 "
             id="polygon2994-8" />
          <polygon
             style="fill:#b3b3b3;fill-opacity:1"
             points="87.5,238.87 86,238.87 86,239.87 86.417,241.12 86.417,241.12 86.75,242.87 87.542,243.662 89.167,243.662 90.167,242.453 89.833,240.287 88.167,240.287 "
             id="polygon2996-2" />
          <path
             style="fill:#b3b3b3;fill-opacity:1"
             inkscape:connector-curvature="0"
             d="m 119.667,267.62 -0.667,2.5 -4.5,-1 -3.333,2 -3.833,-0.167 -2.833,3.833 -3.5,1.333 -0.167,2.5 -1.834,2.168 -4.167,0.167 -1.667,2 -0.417,-3.667 -1.25,-1.917 -2,-0.833 -0.667,-2.417 1.417,-2.667 -1.5,-2.583 c 0,0 0.25,-2.5 0.25,-2.833 0,-0.333 -0.979,-2.354 -0.979,-2.354 l -2.437,-2.437 1.75,-1.625 1.333,-0.833 1.417,-1.417 -1.417,-1.167 -1,0 -0.5,-1.75 -0.833,-1.417 1.25,-0.75 0.75,-2.417 1.583,-1 0.917,0.917 1.208,-1.208 0,-1.958 1.292,-1.083 1.917,-1.417 1.917,2.417 2,0.25 2.833,1.667 1,1.75 1.917,0.5 1.417,3 2.333,0.5 2.167,2.5 1.417,2.25 0.75,3 1.25,2.167 1.417,2.667 1.667,-0.333 2.332,1.164 z"
             id="path2998-4" />
        </g>
        <polygon
           style="fill:#b3b3b3;fill-opacity:1"
           points="16.729,251.986 17.811,255.499 21.541,258.137 26.411,269.306 34.828,279.311 36.078,284.839 34.993,286.881 32.439,289.435 28.251,293.245 25.504,297.748 21.422,301.83 18.103,300.418 16.882,298.587 13.601,299.197 11.846,300.113 11.999,304.004 10.243,305.759 6.046,307.896 2.232,310.872 2.232,313.39 0.5,316.787 0.5,229.829 0.5,229.829 2.4,231.729 3.751,233.08 8.353,233.08 9.704,236.043 12.541,238.88 16.189,240.097 20.783,244.69 18.891,249.824 "
           id="PL-5" />
        <g
           style="fill:#b3b3b3;fill-opacity:1"
           id="DK-2">
          <polygon
             style="fill:#b3b3b3;fill-opacity:1"
             points="6.833,189.786 5.25,191.37 5.25,193.12 6.625,194.495 8,192.286 11,192.286 12.583,193.87 11,195.453 8.667,198.62 5,196.786 3.667,198.12 2.25,199.537 0.5,197.786 0.5,188.786 0.5,188.786 1.5,187.286 3.5,187.786 4.583,188.87 "
             id="polygon3002-9" />
          <polygon
             style="fill:#b3b3b3;fill-opacity:1"
             points="11.417,177.786 12.667,174.453 11.333,169.786 10.667,165.953 5.5,166.62 2.167,166.12 0.5,166.12 0.5,179.12 0.5,179.12 1.583,178.037 3.083,179.537 5.333,178.786 8,179.953 8.167,182.453 9.833,182.453 11.417,180.87 "
             id="polygon3004-9" />
          <polygon
             style="fill:#b3b3b3;fill-opacity:1"
             points="9,217.453 8.167,219.786 9.75,221.37 11.25,219.87 9,217.453 "
             id="polygon3006-8" />
        </g>
        <g
           style="fill:#b3b3b3;fill-opacity:1"
           id="SWE-3">
          <path
             style="fill:#b3b3b3;fill-opacity:1"
             inkscape:connector-curvature="0"
             d="m 46.333,166.12 4.417,-2 2.75,0 3.25,-3.25 3.375,-3.375 4.125,0 2.438,-2.438 4.563,-2.438 6.75,-2.5 7,-2 3.75,0 3.75,-1.5 4.75,-2.75 6.75,0.5 7,0 7.75,-2.75 8,0 7.5,1.75 10,0 8,0 4,0.5 3.875,3.875 7.625,-0.375 6.75,0 3.75,0.75 10,1 3.625,3.625 3.625,1.125 3.75,0 6,1.75 1.875,1.875 1.348,1.436 -0.426,1.327 0,2.127 1.62,2.235 -1.668,1.668 -0.667,3.333 -7.167,-1.333 -3.166,3.166 -3.083,1.083 -3.75,3.75 -2.5,4.667 -3,2 -4.167,2 -2.167,1.167 0,2.5 -2.587,2.772 -1.155,-1.155 -2.369,-2.369 -1.944,-3.523 -2.916,-0.607 -3.159,0.972 -0.972,-1.458 -3.767,0.243 -0.607,2.309 -2.551,-0.851 -2.065,0 -3.645,2.309 0,3.038 -3.28,-0.972 -1.944,0 -1.822,1.823 -3.159,-1.094 -4.617,-0.607 -3.402,-1.822 -1.701,-2.065 -3.159,0.729 -4.496,-1.823 -2.308,0.122 -1.215,-1.701 -1.64,-0.79 -2.491,2.491 -3.159,0 -2.309,-1.215 -3.22,1.762 -2.126,2.126 -2.43,1.458 -1.336,-1.336 -2.734,0.547 -2.733,2.733 -2.43,1.944 -2.673,1.823 -1.336,2.551 0,4.86 0.911,2.855 -1.883,1.883 -2.673,3.645 -2.065,2.187 -3.281,-0.851 -1.822,0 -3.584,-1.275 -0.85,-0.85 2.126,-2.126 2.065,-2.065 -1.337,-1.337 -3.28,-1.701 -1.094,-3.523 -2.976,0.425 1.032,1.032 0,1.215 1.336,4.981 -1.458,2.551 -2.916,0.607 -4.191,-0.061 -1.944,-1.944 -1.154,-1.154 0,-0.972 -0.851,-0.851 0,3.281 -2.612,0.79 -2.977,2.977 -2.37,-0.546 -1.154,1.154 -2.065,0.851 -3.645,1.701 -4.374,1.215 -4.495,1.762 -3.949,0 -1.154,1.154 -3.645,0.364 -2.065,-3.28 -1.215,-2.187 -0.729,-2.673 -2.552,-0.851 -1.822,-1.822 -3.523,0.851 -0.972,3.037 -3.523,0 -0.668,-3.098 -1.762,-1.762 -2.432,-2.433 1.215,-2.673 2.673,-0.85 2.43,-2.187 1.944,-2.794 c 0,0 1.823,0 2.187,-0.365 0.364,-0.365 2.187,-1.822 2.187,-1.822 l 3.038,0.851 1.093,-2.795 1.094,-3.402 0.607,-0.607 -0.085,-1.985 0.417,-1.5 2.083,-1.417 1.5,-4.083 2.333,-1.585 1.5,-1.083 0.833,-1.583 2.917,-1 2.167,-1.083 0.333,-0.917 3.083,-0.333 2,-1.333 1.75,-0.5 0.333,-2.75 1.417,-1.084 z"
             id="path3009-8" />
          <polygon
             style="fill:#b3b3b3;fill-opacity:1"
             points="33.051,219.402 29.833,221.286 31,222.453 34.333,221.453 38.667,220.62 42.667,219.62 44.167,218.12 39.5,218.12 34.667,218.12 33.051,219.402 "
             id="polygon3011-6" />
          <polygon
             style="fill:#b3b3b3;fill-opacity:1"
             points="54.167,229.453 55.917,227.703 58.5,227.12 62.333,227.953 59,224.62 57.25,222.87 54.333,224.287 51.833,223.453 51.833,223.453 49.083,226.203 46.833,228.453 48.5,228.453 "
             id="polygon3013-9" />
        </g>
        <g
           style="fill:#b3b3b3;fill-opacity:1"
           id="FI-8">
          <polygon
             style="fill:#b3b3b3;fill-opacity:1"
             points="106.917,216.37 106.083,218.203 104.083,220.203 103.417,222.12 103.917,224.203 103.167,224.703 102.333,225.536 104.333,226.036 104.333,228.953 103.917,231.287 102.583,230.745 100.875,230.745 100,231.62 101.083,232.953 102.333,233.37 103.75,233.37 103.25,235.87 101.25,236.287 101.25,236.953 104.083,237.537 104.083,239.453 106.417,240.203 108,242.87 109.417,242.87 111.459,242.995 113.833,245.37 117.333,247.953 119.083,247.953 121.417,249.453 123.5,250.703 122.5,251.703 124.5,252.953 126.333,254.037 126.5,256.203 129,256.787 166.333,256.62 173.333,254.12 173.333,249.787 174.5,238.787 179.167,238.787 183.167,235.62 183.167,231.287 186.167,230.12 186.167,224.453 188.833,224.287 194.667,219.62 197.5,220.953 203.667,209.453 204.084,206.37 209.167,201.287 217.667,201.287 220.333,196.62 220.333,187.62 225.667,184.953 232.603,181.439 234.5,180.287 236.333,180.287 236.25,178.703 238.167,176.787 240.5,174.453 240.083,169.537 237.833,167.287 234.167,167.287 232.333,164.787 225.5,164.787 220.833,163.12 213.5,164.287 209.667,164.62 208,166.287 207.333,169.62 200.167,168.287 197,171.453 193.917,172.537 190.167,176.287 187.667,180.953 184.667,182.953 180.5,184.953 178.333,186.12 178.333,188.62 175.747,191.392 177.333,193.453 177.333,193.453 177.917,192.87 178.875,193.495 177.583,194.787 176.333,196.953 176.583,199.787 174.25,202.12 172.167,202.953 171.25,205.203 169,205.287 167.083,203.537 164.75,203.537 163.667,204.62 160.333,203.787 156.5,203.87 152.375,204.329 150.75,202.703 147.083,203.537 144.5,203.203 142.333,202.453 140.167,202.453 138.333,203.62 135.917,203.62 135.917,201.62 134,200.287 132.167,201.703 129.333,201.703 126.917,201.287 125.333,202.87 123.5,202.786 123.5,206.203 121.917,208.37 120.25,207.87 118.083,209.286 118.5,211.203 116.667,212.787 114.917,214.536 112.917,213.953 111.5,215.786 108.667,216.87 "
             id="polygon3016-6" />
          <polygon
             style="fill:#b3b3b3;fill-opacity:1"
             points="94.833,213.953 91.167,213.787 91.167,213.787 90.167,215.453 92,215.953 93.833,215.787 "
             id="polygon3018-6" />
        </g>
        <path
           style="fill:#b3b3b3;fill-opacity:1"
           inkscape:connector-curvature="0"
           d="m 10.243,305.759 1.755,-1.755 -0.153,-3.892 1.755,-0.916 3.281,-0.61 1.221,1.831 3.319,1.412 4.082,-4.082 2.747,-4.502 4.188,-3.81 0,0 2.873,1.596 2.043,2.937 2.362,1.34 1.66,1.66 c 0,0 2.426,-0.383 2.809,-0.383 0.383,0 1.724,1.724 1.724,1.724 l 1.468,2.553 1.532,-1.787 1.213,-1.405 2.042,-0.447 2.234,-1.851 2.362,0.575 2.171,0.83 1.308,-0.351 0.734,0.734 1.468,0.958 2.49,0.255 0.447,-2.745 1.852,-0.766 0,0 2.603,0.508 2.083,0 1.084,1.083 0.25,2.333 2,0.333 0.75,-1.917 3.167,1.083 2.083,0 1.083,0.833 -0.5,2.333 1.5,3.333 2.333,2.333 -0.833,2.667 -1,2.5 3.167,0.836 2.833,2.667 0,5.667 -3.167,2.667 -1.167,2.5 -3.333,1 -1.333,3.667 -1.833,4.332 -1,4 0.167,2.833 -1.667,1.167 2.5,2.5 -1,3.667 -0.833,3.333 -3.167,1 -3.333,-1.167 -1,-2.5 -1.833,-2 -2.5,0.167 -0.833,3 -2.167,2.5 -3.167,3.167 -1.5,2.667 -3,-3.667 -3.333,0 -4,-0.333 -2.667,2.667 -3.5,0 -0.25,-3.583 -2.75,-2.75 -2.167,-2.168 0,-3.167 -4,-2.167 0.75,-3.25 -2.75,-2.75 -2.667,-2.667 0,-1.833 -2.5,-4.167 -0.333,-3.5 -3.333,-6.5 -3,-3 -3.75,-3.75 -1.417,-1.416 -5.281,0.5 0,-2.885 -1.672,-1.672 4.196,-2.137 z"
           id="BY-2" />
        <path
           style="fill:#b3b3b3;fill-opacity:1"
           inkscape:connector-curvature="0"
           d="m 49.833,454.119 2.5,-2.666 3.667,-1.666 3.167,1.332 2.833,-1.166 2.667,2.834 4,4.332 3.667,-3.666 2.5,-1.5 -0.667,-3.668 2.333,-2.332 2.333,0.334 -0.167,-2.668 6.167,-0.832 1.167,-2.834 1.333,-1.666 -2.833,-1.334 0,-3.5 -2.667,-3 -1,-3.834 -2.5,-1.5 -2.667,-3 1,-3.5 -1,-5.166 -3.166,-2.333 -3.667,-2.832 -1.167,-3.834 -2.5,-2 -0.833,-2.334 2.167,-2.5 1.667,-3.666 0,-3.5 -1.833,-3.333 -1.833,-2.833 1.667,-1.333 1,-2.5 2,0 1.5,-1.333 1.167,-4.5 0.333,-2.667 -1.334,-3.333 -1.834,-1.835 -2.5,-0.333 -1.833,-2 -1.5,-2.167 -2.25,1.916 -1.75,-1.75 -1.5,-2.5 -3,-3.667 -3.333,0 -4,-0.333 -2.667,2.667 -3.5,0 -0.25,-3.583 -2.75,-2.75 -2.167,-2.167 0,-3.167 -4,-2.167 0.75,-3.25 -2.75,-2.75 -2.667,-2.667 0,-1.833 -2.5,-4.167 -0.333,-3.5 -3.333,-6.5 -3,-3 -3.75,-3.75 -1.417,-1.416 -5.281,0.5 0,-2.885 -1.672,-1.672 -3.814,2.976 0,2.518 -1.733,3.397 0,97.333 1.5,0 1.375,-1.375 1.125,-2.375 0.688,0.688 -1.063,1.063 -0.875,1.875 -1,2.25 0,1.75 2.375,1 -1.875,0.874 -1.25,-1.25 -1,-0.75 0,9.375 1.063,1.063 0.938,-1.063 1.063,1.063 1.375,1.375 0.061,1.436 1.063,1.063 0.875,0.875 0,1.063 -1.813,0 -1.875,0.25 -1.063,-1.063 -1.687,-1.063 0,21.625 1.188,1.188 2.688,1.063 2.5,0 3.124,0 1.25,2.625 0.625,1.75 3.625,2.25 3.25,0.625 1.25,-2 2.625,0.375 -2.5,-2.75 c 0,0 -0.625,-2.5 -1.625,-2.5 -1,0 -2.75,-0.5 -2.75,-0.5 l -3.25,-1.75 -2.375,-3.625 1.375,-2.25 0.75,-3.25 -0.5,-3 c 0,0 -1.375,-0.875 -1.375,-1.5 0,-0.625 0.625,-3.126 0.625,-3.126 l -1.625,-1.625 0,-2.5 1.125,1.125 1.438,1.438 1.062,2.437 1.563,1.563 2.563,0.813 3,0.75 1.875,-0.75 0.5,2.125 2.375,0.25 3.124,-0.126 1,1 1.375,2.5 4.375,0.375 1.75,1.75 3.875,0.5 1.188,1.188 3.063,0 1.719,1.719 1.75,1.75 1.738,0.343 z"
           id="UA-3" />
        <path
           style="fill:#b3b3b3;fill-opacity:1"
           inkscape:connector-curvature="0"
           d="m 0.5,528.008 1.815,3.295 0,1.648 3.112,2.563 1.465,0 3.296,0.916 2.289,2.289 5.767,0 4.211,0 1.968,1.967 3.158,0 2.014,4.533 2.014,-1.1 2.014,3.662 1.647,4.211 -2.014,2.014 2.014,4.395 0,2.197 -2.014,3.295 -2.563,0.367 -1.465,3.295 -2.197,1.465 3.113,3.479 2.289,2.289 1.647,1.648 -1.373,4.119 -4.761,1.281 -1.922,-1.922 -2.289,2.473 -0.366,4.211 -3.296,3.295 -0.549,2.746 0.366,2.746 c 0,0 -2.38,2.381 -3.112,2.381 -0.732,0 -2.93,0 -2.93,0 l -0.549,2.93 2.563,2.563 -3.113,3.479 -0.183,4.945 -3.295,-1.1 -3.843,0 1.831,-3.846 -3.387,-3.387 -3.372,-1.006 0,-74.336 z"
           id="TR-8" />
        <polygon
           style="fill:#b3b3b3;fill-opacity:1"
           points="10.921,614.611 8.175,616.99 9.365,618.182 11.013,619.828 8.449,622.393 8.449,625.23 10.052,626.832 8.45,628.434 7.265,629.619 0.5,629.619 0.5,602.344 0.5,602.344 3.872,603.35 7.259,606.736 5.428,610.582 9.273,610.582 12.568,611.682 "
           id="IQ-2" />
        <polygon
           style="fill:#b3b3b3;fill-opacity:1"
           points="39.026,587.238 41.407,589.617 40.948,593.189 40.948,597.033 38.751,599.23 40.399,601.795 44.061,601.795 46.075,603.076 46.808,598.316 49.462,595.66 46.075,592.09 46.258,589.344 44.61,584.949 47.54,584.949 49.462,583.027 48.638,580.373 47.906,576.162 50.195,573.873 52.483,571.768 49.92,567.557 49.92,564.627 45.343,563.527 42.414,560.598 39.667,559.682 35.272,558.4 35.272,560.598 33.258,563.893 30.695,564.26 29.23,567.555 27.033,569.02 34.082,576.436 32.709,580.555 32.709,580.555 34.632,582.479 36.554,582.936 36.554,584.766 "
           id="AM-6" />
        <g
           style="fill:#b3b3b3;fill-opacity:1"
           id="AZ-2">
          <polygon
             style="fill:#b3b3b3;fill-opacity:1"
             points="36.554,582.936 36.554,584.766 41.407,589.617 40.948,593.189 40.948,597.033 38.751,599.23 37.012,597.49 34.632,594.652 34.632,594.652 33.258,588.795 34.174,585.682 34.632,582.479 "
             id="polygon3026-7" />
          <polygon
             style="fill:#b3b3b3;fill-opacity:1"
             points="72.833,579.285 71,573.785 70.667,569.785 68,567.953 64.567,567.738 62.92,569.387 64.567,571.033 65.3,573.414 64.567,576.893 62.188,576.893 60.723,573.232 58.342,573.232 57.061,567.373 54.406,564.717 52.667,564.717 49.92,564.627 49.92,567.557 52.483,571.768 47.906,576.162 48.638,580.373 49.462,583.027 47.54,584.949 44.61,584.949 46.258,589.344 46.075,592.09 49.462,595.66 46.808,598.316 46.075,603.076 46.075,603.076 51.568,602.525 54.863,601.428 56.877,602.893 61.271,602.16 64.567,603.809 65.483,607.652 63.561,609.576 61.729,611.406 61.729,613.328 57.61,612.23 56.877,616.441 59.44,619.004 59.44,623.582 62.553,624.68 64.75,621.752 65.3,618.455 68.229,617.723 69.786,616.166 70.61,618.639 72.532,616.717 75.736,615.525 76.286,612.047 80.313,609.85 83.06,607.104 87.637,607.652 90.018,610.033 92.215,610.033 92.215,607.104 89.102,604.906 87.637,602.16 86.722,596.85 88.187,591.357 88.187,586.414 89.034,582.82 87.5,581.285 83.5,583.119 80.833,581.953 77,583.285 73.333,582.453 "
             id="polygon3028-5" />
        </g>
        <polygon
           style="fill:#b3b3b3;fill-opacity:1"
           points="65.3,573.414 64.567,576.893 62.188,576.893 60.723,573.232 58.342,573.232 57.061,567.373 54.406,564.717 49.92,564.627 45.343,563.527 42.414,560.598 35.272,558.4 33.258,554.006 35.272,551.992 31.61,544.119 29.596,545.219 27.582,540.686 24.424,540.686 22.456,538.719 22.456,538.719 25.569,537.529 28.865,534.6 30.147,530.572 32.436,528.283 32.436,525.08 31.246,521.051 31.978,517.207 27.767,512.994 28.682,509.15 27.667,505.453 29.833,505.119 31.5,507.453 32.833,509.119 34.667,509.453 35.5,512.787 38,516.619 39.167,520.619 42.833,523.119 45.333,524.287 46.833,528.119 49.667,530.453 49,533.785 51.333,535.953 52,541.285 54.333,543.619 58,544.119 60.083,546.203 60.667,547.953 63.5,548.285 64.333,551.285 66.833,553.953 65.833,556.785 64.333,559.285 66.667,562.285 68,565.785 68,567.953 64.567,567.738 62.92,569.387 64.567,571.033 "
           id="GE-7" />
        <polygon
           style="fill:#b3b3b3;fill-opacity:1"
           points="56.877,616.441 59.44,619.004 59.44,623.582 62.553,624.68 61.272,627.428 60.082,628.617 59.44,629.619 59.44,629.619 7.265,629.619 10.052,626.832 8.449,625.23 8.449,622.393 11.013,619.828 8.175,616.99 10.921,614.611 12.568,611.682 12.751,606.736 15.864,603.258 13.301,600.695 13.85,597.766 16.78,597.766 19.892,595.385 19.526,592.639 20.075,589.893 23.371,586.598 23.737,582.387 26.026,579.914 27.948,581.836 32.709,580.555 34.632,582.479 34.174,585.682 33.258,588.795 34.632,594.652 38.751,599.23 40.399,601.795 44.061,601.795 46.075,603.076 51.568,602.525 54.863,601.428 56.877,602.893 61.271,602.16 64.567,603.809 65.483,607.652 63.561,609.576 61.729,611.406 61.729,613.328 57.61,612.23 "
           id="IR-8" />
        <polygon
           style="fill:#b3b3b3;fill-opacity:1"
           points="175.667,475.453 179.5,474.119 181.583,472.035 185.667,472.787 186.833,476.119 186.833,479.287 189.167,479.287 193.167,478.619 195.334,480.787 196.5,483.619 200.5,485.119 203,488.119 203.667,492.619 205.333,496.953 206.667,499.787 204.667,501.787 204.667,504.453 206.833,504.453 208.833,501.119 211.667,503.619 213.667,507.453 216.5,508.287 220,507.787 223.833,505.953 226.667,507.453 229.833,509.953 231,512.453 234.167,511.285 238,511.285 240.083,513.369 240.083,517.619 242.542,520.078 243.167,521.953 246.417,525.203 249.333,525.203 251.125,523.41 252.833,523.41 254.167,526.119 256.083,528.035 259.833,527.785 263.5,527.785 265.667,525.619 268,522.453 265.667,520.119 265,517.285 263.417,515.703 261.083,513.369 260,510.953 261.333,507.453 264.667,508.285 267.5,507.453 268.667,504.453 267.5,500.285 270.333,499.119 274.667,498.953 277.5,501.785 279.833,501.785 281.917,499.703 279.667,497.453 277.833,495.619 276,494.453 278.333,492.119 277.167,489.619 278.333,485.953 281.833,485.953 285.667,487.953 288.333,490.285 291.333,489.453 295.5,490.285 301.167,490.119 305,491.285 307.833,491.285 311,492.953 314.333,492.285 316.25,490.369 318,490.369 322.333,492.619 326.833,492.619 330.5,491.953 333.5,493.619 337.167,492.619 341.333,492.619 343.333,489.785 347,490.119 350.333,492.119 354.5,492.119 356,495.119 359,495.119 361.5,496.287 362.833,500.453 362,502.787 362,505.953 359.916,508.037 360.833,510.953 364.5,511.953 367.833,509.953 370.25,512.369 369.167,516.287 372.5,517.287 374.333,515.453 377.333,517.287 380.667,517.287 380.667,519.619 376.667,521.453 375.667,525.953 378.5,525.953 382,524.287 383.833,526.953 387.833,524.787 392.5,523.453 395.25,520.703 397.833,520.619 401.333,520.453 403.833,517.953 406.833,517.953 407.667,520.287 405.667,522.953 403.333,522.953 403.333,525.953 406.167,527.119 408.25,529.203 410.167,533.287 412,535.119 414.833,537.953 416.833,544.619 416.833,550.119 419.5,552.619 419.5,556.619 422.333,561.619 423.167,565.953 424.333,569.787 426.5,574.119 430.167,573.453 432,569.619 434.667,568.787 436.5,570.953 436.5,573.453 438.333,575.285 440.334,577.285 444,576.619 445.667,578.287 449.833,577.619 451.917,575.537 456.167,575.537 458.208,577.578 461.333,578.953 463.667,581.119 464.333,585.119 467.167,586.953 468.5,589.953 472,592.119 472,596.119 476.5,597.285 480.5,598.619 484.833,596.953 487.417,594.369 488.333,597.785 490.167,601.119 491.667,603.619 487.295,604.641 486.771,607.957 485.667,611.787 483.417,614.037 478.083,613.871 475.834,616.121 474,618.953 474.083,623.287 474.583,629.619 236.167,629.619 227.167,627.787 221.167,609.121 207,585.953 179.5,581.621 154.667,627.621 148.5,625.621 148.5,613.953 144.167,607.453 140,604.787 133.167,602.953 129,602.787 124.667,602.621 125.667,600.287 129.25,596.703 131.5,592.453 128.917,589.871 126.75,587.703 125.667,581.953 123,580.121 126.333,576.121 125.333,570.453 127.833,564.787 123.25,560.203 124.333,557.621 127.667,557.621 129.833,559.787 132.333,563.121 135.167,563.121 135.167,557.787 137.583,555.371 142,555.371 146.167,556.953 151.833,560.121 155.75,564.037 156.667,563.121 154.5,559.287 156.833,556.453 160,555.121 161.833,551.453 164.917,548.371 167.083,546.203 165.167,540.953 161,539.287 159.167,541.121 155.333,534.621 153.5,530.953 149,530.621 143.333,529.621 138.167,530.621 135.333,529.287 133,530.453 133,528.287 130.167,529.453 130.167,529.453 128.083,527.369 126.667,524.453 126.333,521.453 128.833,521.785 130.5,523.619 132.25,521.869 132.25,517.285 131.333,511.619 132.167,507.285 130.167,505.285 127,502.285 124.833,500.953 127,498.785 128,494.453 125.583,492.035 124.5,488.785 127.167,486.953 129.334,484.785 132.333,484.953 135.167,483.785 135.167,480.785 137.333,478.619 139.917,476.035 143.167,476.035 145.333,474.453 146.5,471.785 149.333,471.785 151.084,473.535 150,476.785 150,480.119 152.417,482.537 156.5,483.285 156.833,480.119 159,477.953 159.833,476.119 163.667,476.119 167.167,476.119 168.833,473.619 172.333,473.619 "
           id="KZ-2" />
        <polygon
           style="fill:#b3b3b3;fill-opacity:1"
           points="522.114,629.619 517.851,623.668 514.924,623.668 512.75,620.74 508.904,622.078 505.811,618.984 502.801,615.975 499.038,613.969 498.453,610.289 496.405,608.242 496.5,604.453 498.667,602.285 502.833,599.953 507.833,600.119 510.584,597.369 514.5,596.453 515.167,592.953 518.5,592.953 521.834,589.619 527.334,586.119 531.667,586.119 532.834,582.619 536.5,582.619 539.417,579.703 543,581.285 545.834,584.119 550.334,582.287 554.167,583.453 557.334,586.619 560,589.285 564.834,590.953 568.167,591.953 572.834,591.119 577.334,592.287 582.167,592.287 585.334,592.287 589.084,588.537 593,585.953 593,581.953 590.084,579.035 590.084,575.287 588,572.787 588.667,568.453 590.917,566.203 593,561.953 595.583,559.369 597.5,557.453 601.334,560.287 607.834,560.287 611.084,563.535 615.834,562.287 620,562.287 624.334,563.953 627.418,567.035 629.834,572.119 632.418,574.703 636.5,576.453 642.5,576.953 646.667,575.785 651,574.785 654.916,570.869 659.667,570.869 667.333,569.785 669.667,571.285 675.5,572.119 681.833,572.119 684.166,574.453 685.5,576.953 690,578.453 695,577.785 701.833,577.785 706.667,576.285 712,576.285 714.083,574.203 718.167,570.119 723.5,567.619 727.333,564.953 730.25,562.035 731.667,557.119 734.167,554.619 737.667,551.119 741.833,549.285 745,550.453 748.5,552.285 753.167,549.619 756.5,547.619 761,548.453 760.75,558.494 760.75,558.494 759.625,569.744 762.688,572.807 760,575.494 761.875,578.869 765.75,579.744 765.75,577.119 769.625,576.244 772,572.744 775.5,574.369 778.75,575.244 780,570.869 782.25,567.619 786.75,566.119 790.375,569.244 794.875,568.869 800.5,573.244 802.063,571.682 805.125,574.744 807.5,578.244 804.813,580.932 803.625,582.119 797.875,582.744 790.188,586.182 787.25,589.119 785,588.369 784.375,593.494 781.125,593.494 779.875,596.994 777.375,601.369 778.625,604.494 776.625,608.119 772.375,612.994 770.25,614.244 765.688,616.182 763.5,618.369 764.875,621.994 762.25,624.619 758.5,628.244 753.75,629.619 "
           id="MN-7" />
        <g
           style="fill:#b3b3b3;fill-opacity:1"
           id="CN-8">
          <path
             style="fill:#b3b3b3;fill-opacity:1"
             inkscape:connector-curvature="0"
             d="m 767.166,548.953 5.5,-2 3.25,-3.25 2.25,-5.25 3.5,-1 0,-4.668 -1.5,-1.5 -2.5,-4.832 1.834,-4.668 0,-4.5 1,-7.166 1.333,-2.834 -1.333,-5.332 -2.334,-2.334 -2.083,-2.084 -2.583,2.084 -1.834,-2.334 1.334,-3.332 1.833,-5.5 2.583,-2.584 5.25,-3.084 2.666,-2.666 5.668,-4.166 4.166,0 3.834,-1.334 5,0.834 4,-2.168 3.5,0 6.666,0.668 2,2 3.334,1.5 1.333,3.5 3.667,1 2.666,2.666 3.834,3 1.667,4 4,0.666 c 0,0 3.167,2.498 3.167,3.166 0,0.668 2.833,2.334 2.833,2.334 l 2.417,2.418 2.083,4.082 5,1 5,-1.832 1.833,-1.834 4.5,0 4.833,-0.666 3.167,0.832 3.833,1 1.917,-1.916 3.583,0.916 2.167,2.168 2.667,2.332 0,3.834 2.333,0.834 3.167,1.832 3.166,0 0.834,-3 3,-1 3.5,-2 3.5,-2.832 -1.334,-4.168 3,-3.832 2.667,-4.334 1,-3.334 4,-2.166 2.833,0 0.667,2.166 2.417,2.418 2.083,2.082 0,3.668 -2.5,2.5 3.333,3.5 0.833,3.666 1.834,3.168 -0.667,2.666 2.333,3.166 0.334,3.834 1.666,3.666 -1.333,3.5 2.667,4.168 -1.5,3 -2.416,2.416 -2.751,-0.916 -2.667,1.332 -2.333,2.334 0,3.334 -1.833,1.832 -2.084,2.084 0.084,3.25 3,1 3.166,3.166 1.5,3.834 1.834,1.834 3.583,3.582 1.75,3.918 0,3.332 -2,4 -1.167,3.834 -2.382,-0.398 -1.685,-1.686 c 0,0 -1.652,1.004 -1.943,1.297 -0.291,0.291 -1.425,1.879 -1.425,1.879 l 1.49,2.525 0,3.887 -2.009,2.787 0.519,5.83 -4.898,1.879 -3.583,3.582 3.667,3.668 0,4.25 -2.792,2.791 -4.458,0.875 -3.667,-1.832 -3.5,2 0,4.5 0,7 -2.833,4.332 -1.5,3 -146.417,0 4.75,-1.375 6.375,-6.25 -1.375,-3.625 2.188,-2.188 4.563,-1.938 2.125,-1.25 4.25,-4.875 2,-3.625 -1.25,-3.125 2.5,-4.375 1.25,-3.5 3.25,0 0.625,-5.125 2.25,0.75 2.938,-2.938 7.688,-3.438 5.75,-0.625 3.875,-3.875 -2.375,-3.5 -3.063,-3.063 -1.563,1.563 -5.625,-4.375 -4.5,0.375 -3.625,-3.125 -4.5,1.5 -2.25,3.25 -1.25,4.375 -3.25,-0.875 -3.5,-1.625 -2.375,3.5 -3.875,0.875 0,2.625 -3.875,-0.875 -1.876,-3.373 2.688,-2.688 -3.063,-3.063 1.125,-11.25 0.25,-10.041 6.166,0.501 z"
             id="path3035-0" />
          <polygon
             style="fill:#b3b3b3;fill-opacity:1"
             points="496.5,604.453 491.667,603.619 491.667,603.619 487.295,604.641 486.771,607.957 485.667,611.787 483.417,614.037 478.083,613.871 475.834,616.121 474,618.953 474.083,623.287 474.583,629.619 522.114,629.619 517.851,623.668 514.924,623.668 512.75,620.74 508.904,622.078 502.801,615.975 499.038,613.969 498.453,610.289 496.405,608.242 "
             id="polygon3037-2" />
        </g>
        <polygon
           style="fill:#b3b3b3;fill-opacity:1"
           points="207,585.953 221.167,609.121 227.167,627.787 236.167,629.619 194.5,629.619 190.699,626.793 190.403,623.018 185.219,623.164 184.257,625.535 181.961,624.572 178.333,626.275 174.779,625.09 169.669,626.053 166.599,629.619 166.599,629.619 155.305,629.619 154.667,627.621 179.5,581.621 "
           id="UZ-0" />
        <g
           style="fill:#b3b3b3;fill-opacity:1"
           id="TM-8">
          <polygon
             style="fill:#b3b3b3;fill-opacity:1"
             points="113.25,629.619 113.13,627.119 114.813,624.236 121.481,617.566 122.021,619.549 123.223,622.072 125.025,622.072 125.386,623.875 127.669,623.275 127.669,625.678 129.892,627.9 132.835,627.9 134.307,626.428 136.08,627.24 138.002,628.201 140.165,626.037 139.083,621.713 137.342,619.971 136.44,616.666 138.363,612.82 138.963,609.336 137.642,607.174 134.999,604.531 132.355,605.252 129.711,603.93 127.549,607.053 125.146,609.576 122.863,611.859 122.142,609.336 124.545,605.01 124.667,602.621 129,602.787 133.167,602.953 140,604.787 144.167,607.453 148.5,613.953 148.5,625.621 154.667,627.621 155.305,629.619 113.25,629.619 "
             id="polygon3041-9" />
          <polygon
             style="fill:#b3b3b3;fill-opacity:1"
             points="190.403,623.018 190.699,626.793 194.5,629.619 166.599,629.619 166.599,629.619 169.669,626.053 174.779,625.09 178.333,626.275 181.961,624.572 184.257,625.535 185.219,623.164 "
             id="polygon3043-2" />
        </g>
        <polygon
           style="fill:#b3b3b3;fill-opacity:1"
           points="928.713,626.146 927.83,628.443 926.25,629.619 926.25,629.619 900.167,629.619 901.667,626.619 904.5,622.287 904.5,615.287 904.5,610.787 908,608.787 911.667,610.619 916.125,609.744 918.917,606.953 918.917,602.703 915.25,599.035 918.833,595.453 923.731,593.574 923.213,587.744 925.222,584.957 925.222,581.07 923.731,578.545 925.156,576.666 927.1,575.369 928.784,577.055 931.166,577.453 932.5,578.787 935.666,578.953 935.514,581.281 933.748,583.047 932.069,586.758 932.069,592.145 931.716,595.324 933.57,597.002 935.514,598.238 936.573,601.064 937.81,603.979 936.309,607.6 935.689,610.604 936.132,613.252 933.924,615.461 932.688,619.17 930.523,621.334 929.772,623.32 "
           id="KP-8" />
        <g
           style="fill:#b3b3b3;fill-opacity:1"
           id="US-2">
          <polygon
             style="fill:#b3b3b3;fill-opacity:1"
             points="974.618,9.356 974.618,5.982 974.618,1.381 968.482,8.743 968.482,8.743 966.336,8.743 966.029,15.492 963.729,17.792 966.949,20.707 969.403,18.252 969.403,15.185 "
             id="polygon3047-0" />
          <polygon
             style="fill:#b3b3b3;fill-opacity:1"
             points="1011.735,32.363 1010.804,33.202 1008.668,35.124 1010.202,36.658 1011.735,32.363 "
             id="polygon3049-5" />
          <polygon
             style="fill:#b3b3b3;fill-opacity:1"
             points="1059.59,23.467 1059.59,25.308 1060.817,25.308 1059.59,23.467 "
             id="polygon3051-5" />
          <polygon
             style="fill:#b3b3b3;fill-opacity:1"
             points="1082.903,171.63 1080.756,172.244 1080.756,172.244 1077.382,175.618 1079.223,177.458 1081.677,175.004 "
             id="polygon3053-2" />
          <rect
             style="fill:#b3b3b3;fill-opacity:1"
             width="2.4530001"
             height="1.534"
             x="1089.0389"
             y="169.78999"
             id="rect83-7" />
        </g>
        <g
           style="fill:#b3b3b3;fill-opacity:1"
           id="JP-6">
          <polygon
             style="fill:#b3b3b3;fill-opacity:1"
             points="1013.609,503.578 1016.897,503.578 1019.035,501.439 1018.049,497 1013.28,493.219 1014.432,489.438 1010.65,485.656 1009.499,482.367 1007.115,479.982 1001.113,478.092 1001.113,475.461 999.305,473.652 1000.785,470.693 1005.224,470.693 1007.854,473.324 1011.637,472.174 1014.925,473.488 1022.817,473.818 1027.914,471.844 1031.202,471.023 1033.094,469.131 1035.148,470.201 1037.697,467.652 1037.779,460.664 1037.779,460.664 1039.752,460.664 1040.41,463.459 1042.712,467.076 1045.343,467.076 1047.397,469.131 1049.782,469.131 1049.782,472.832 1048.302,476.941 1044.355,480.887 1041.232,485.656 1042.547,488.779 1043.369,493.219 1046,497.166 1046.165,500.783 1041.89,500.783 1037.615,501.77 1031.038,502.92 1026.599,505.715 1024.79,512.291 1021.83,511.471 1017.885,513.771 1018.871,517.553 1022.652,517.553 1025.612,516.73 1029.887,516.73 1032.106,518.951 1028.9,520.842 1027.75,523.801 1027.092,528.24 1024.626,529.227 1021.666,522.65 1017.885,521.5 1015.418,521.5 1013.609,519.691 1013.609,515.908 1015.089,511.635 1014.103,507.523 1011.144,507.523 1009.006,505.387 "
             id="polygon3057-7" />
          <polygon
             style="fill:#b3b3b3;fill-opacity:1"
             points="1035.478,521.17 1032.847,521.664 1033.833,525.281 1036.135,525.281 1038.519,522.896 1041.067,522.156 1038.602,519.691 1035.478,521.17 "
             id="polygon3059-8" />
          <polygon
             style="fill:#b3b3b3;fill-opacity:1"
             points="1065.237,627.057 1070.663,625.084 1073.623,622.125 1074.445,617.686 1074.445,613.904 1074.445,610.779 1077.897,611.273 1078.556,614.232 1080.282,615.959 1081.351,611.109 1079.049,607.82 1079.049,604.203 1080.857,602.395 1081.021,599.105 1079.871,595.818 1084.639,594.338 1083.076,595.898 1083.076,599.105 1084.434,600.463 1086.982,603.012 1089.244,600.75 1089.244,596.475 1086.283,593.516 1088.421,589.898 1088.421,586.281 1085.133,586.117 1082.092,583.074 1079.461,580.443 1079.461,576.088 1077.404,574.936 1076.089,569.676 1072.308,565.893 1068.854,562.111 1067.21,560.467 1064.908,556.521 1067.045,553.396 1067.045,550.273 1064.743,547.643 1064.908,544.025 1062.277,541.395 1062.113,537.447 1059.811,533.996 1056.687,531.035 1054.057,532.021 1051.59,529.555 1049.945,527.91 1046.986,528.898 1043.698,525.445 1041.067,524.623 1041.067,527.912 1037.778,528.404 1038.437,530.871 1035.642,529.557 1034.491,528.57 1034.491,528.57 1032.189,527.584 1030.381,529.721 1033.258,532.598 1033.258,536.461 1034.326,540.078 1037.121,542.873 1037.779,547.479 1041.89,548.135 1045.507,553.727 1048.302,559.809 1049.124,565.07 1050.933,569.018 1051.919,572.963 1050.275,578.225 1051.591,582.828 1051.426,589.24 1050.11,592.365 1047.48,596.803 1046.329,601.736 1045.343,604.531 1042.219,602.064 1038.602,602.064 1039.259,599.6 1040.41,595.982 1038.272,594.994 1036.3,598.283 1036.3,602.395 1039.506,605.6 1040.574,610.615 1040.081,615.383 1041.396,619.166 1040.41,621.795 1042.795,624.18 1042.795,627.879 1041.055,629.619 1056.688,629.619 1057.51,626.893 1059.647,628.701 1061.62,628.701 "
             id="polygon3061-7" />
        </g>
      </g>
      <polygon
         transform="translate(-1021.0463,-1501.6779)"
         points="721.343,138.826 718.091,137.691 716.427,135.271 715.671,134.212 715.671,134.212 715.368,133.002 717.637,134.061 718.771,132.926 720.359,131.338 722.704,128.994 724.141,130.733 724.897,130.733 726.787,128.843 728.527,126.801 731.854,125.289 734.274,127.104 732.913,130.885 732.913,133.002 731.325,134.59 728.829,135.725 726.107,136.784 723.385,136.784 "
         id="polygon3064"
         style="fill:#b3b3b3;fill-opacity:1;stroke:#000000" />
      <polygon
         transform="translate(-1021.0463,-1501.6779)"
         points="709.318,149.489 707.05,147.825 704.327,146.161 701.604,144.195 702.512,142.229 703.949,140.792 705.083,144.648 706.822,146.388 709.771,146.917 711.587,146.161 713.1,146.161 714.611,144.649 713.855,141.472 711.436,141.472 712.041,138.75 712.041,136.784 710.074,137.389 710.074,137.389 705.234,137.389 703.646,138.977 701.15,140.716 699.335,138.901 694.949,140.262 695.252,142.985 696.387,144.12 698.05,145.783 699.185,146.917 697.521,148.279 695.252,146.313 694.042,147.522 692.378,145.858 688.597,146.615 686.933,145.708 686.177,147.674 687.387,148.883 685.118,150.094 685.118,152.967 686.934,154.782 686.479,156.9 688.143,156.9 690.261,159.018 689.655,161.438 692.378,162.799 696.008,162.95 697.521,164.462 700.243,164.462 703.419,163.555 703.419,161.135 701.453,159.32 702.512,158.261 704.1,159.849 706.898,154.783 709.545,152.136 710.68,153.27 713.1,150.85 713.855,148.581 711.133,147.674 "
         id="polygon3066"
         style="fill:#b3b3b3;fill-opacity:1;stroke:#000000" />
      <polygon
         transform="translate(-1021.0463,-1501.6779)"
         points="712.646,164.009 711.284,165.219 712.343,168.244 714.083,169.984 715.52,167.185 715.52,164.917 714.461,163.858 712.646,164.009 "
         id="polygon3068"
         style="fill:#b3b3b3;fill-opacity:1;stroke:#000000" />
      <polygon
         transform="translate(-1021.0463,-1501.6779)"
         points="729.435,164.614 726.561,164.614 722.477,163.252 720.586,164.992 718.847,166.731 718.847,166.731 717.107,168.471 718.091,170.815 719.755,172.479 718.695,174.899 719.604,175.807 720.965,172.933 724.443,172.176 727.469,170.966 731.552,168.546 "
         id="polygon3070"
         style="fill:#b3b3b3;fill-opacity:1;stroke:#000000" />
      <polygon
         transform="translate(-1021.0463,-1501.6779)"
         points="684.815,160.227 683.454,158.866 681.034,158.715 682.623,160.303 683.605,163.857 685.571,163.857 685.571,161.891 684.815,160.227 "
         id="polygon3072"
         style="fill:#b3b3b3;fill-opacity:1;stroke:#000000" />
      <polygon
         transform="translate(-1021.0463,-1501.6779)"
         points="609.188,219.064 606.391,221.862 606.391,223.752 608.734,223.752 609.491,225.567 611.457,224.66 613.727,222.391 613.727,218.761 610.853,218.761 609.188,219.064 "
         id="polygon3074"
         style="fill:#b3b3b3;fill-opacity:1;stroke:#000000" />
      <polygon
         transform="translate(-1021.0463,-1501.6779)"
         points="707.798,112.583 706.891,114.247 707.874,115.23 709.009,114.247 707.798,112.583 "
         id="polygon3076"
         style="fill:#b3b3b3;fill-opacity:1;stroke:#000000" />
      <polygon
         transform="translate(-1021.0463,-1501.6779)"
         points="700.235,180.041 699.328,178.68 699.328,178.68 696.454,178.075 695.547,178.831 697.211,179.587 699.328,181.251 "
         id="polygon3078"
         style="fill:#b3b3b3;fill-opacity:1;stroke:#000000" />
      <polygon
         transform="translate(-1021.0463,-1501.6779)"
         points="577.419,181.252 576.813,182.16 578.175,183.067 578.779,182.008 577.419,181.252 "
         id="polygon3080"
         style="fill:#b3b3b3;fill-opacity:1;stroke:#000000" />
      <polygon
         transform="translate(-1021.0463,-1501.6779)"
         points="570.915,167.791 569.402,168.698 571.52,169.757 573.032,170.815 574.696,170.362 574.242,168.396 572.578,168.849 570.915,167.791 "
         id="polygon3082"
         style="fill:#b3b3b3;fill-opacity:1;stroke:#000000" />
      <polygon
         transform="translate(-1021.0463,-1501.6779)"
         points="549.437,176.563 552.311,174.294 553.975,173.236 557.756,171.27 560.781,170.967 564.563,168.093 566.377,164.614 565.167,161.589 563.806,159.32 561.991,160.077 560.176,156.9 558.814,155.539 557.15,157.505 556.092,160.379 556.092,160.379 556.092,158.262 556.243,154.48 555.185,152.363 553.672,152.514 551.555,155.085 551.706,157.354 550.798,158.867 551.403,162.951 549.588,164.766 549.739,168.849 548.832,172.328 548.075,175.807 "
         id="polygon3084"
         style="fill:#b3b3b3;fill-opacity:1;stroke:#000000" />
      <path
         inkscape:connector-curvature="0"
         d="m -478.56728,-1357.4829 -1.361,1.664 -1.21,2.269 -1.059,-0.454 0.756,-2.874 0,-3.025 -3.327,1.059 c 0,0 -1.966,0.454 -2.42,0.605 -0.454,0.151 -2.723,0.908 -2.723,0.908 l -1.059,2.269 -0.605,1.966 -1.361,1.664 0.454,1.966 -2.571,1.966 1.21,1.059 1.814,-0.605 1.513,2.117 0.151,1.966 1.361,1.664 3.479,0.302 0.454,1.966 2.42,-1.512 1.21,1.966 3.327,1.21 3.177,-1.513 1.513,-2.118 -1.21,-2.42 -1.967,-2.723 1.513,-1.059 0.605,-2.571 -0.757,-2.874 0.303,-2.874 -3.63,-1.964 z"
         id="path3086"
         style="fill:#b3b3b3;fill-opacity:1;stroke:#000000;stroke-width:1" />
      <polygon
         transform="translate(-1021.0463,-1501.6779)"
         points="539.908,192.293 539.757,190.479 539.757,190.479 538.244,192.293 536.278,192.747 538.093,194.108 "
         id="polygon3088"
         style="fill:#b3b3b3;fill-opacity:1;stroke:#000000" />
      <polygon
         transform="translate(-1021.0463,-1501.6779)"
         points="514.498,189.874 513.742,191.083 514.8,191.991 516.162,190.024 514.498,189.874 "
         id="polygon3090"
         style="fill:#b3b3b3;fill-opacity:1;stroke:#000000" />
      <path
         inkscape:connector-curvature="0"
         d="m -522.12728,-1270.3619 -1.815,0.908 c 0,0 0.756,2.269 0.756,1.966 0,-0.303 1.361,-0.605 1.361,-0.605 l -0.302,-2.269 z"
         id="path3092"
         style="fill:#b3b3b3;fill-opacity:1;stroke:#000000;stroke-width:1" />
      <polygon
         transform="translate(-1021.0463,-1501.6779)"
         points="485.912,217.704 484.248,219.064 485.155,220.88 486.667,220.577 485.912,217.704 "
         id="polygon3094"
         style="fill:#b3b3b3;fill-opacity:1;stroke:#000000" />
      <polygon
         transform="translate(-1021.0463,-1501.6779)"
         points="487.575,237.971 485.306,237.518 485.306,237.518 485.004,239.181 487.575,239.181 488.937,240.542 489.088,238.273 "
         id="polygon3096"
         style="fill:#b3b3b3;fill-opacity:1;stroke:#000000" />
      <polygon
         transform="translate(-1021.0463,-1501.6779)"
         points="478.803,149.035 476.534,147.825 476.534,147.825 475.626,148.733 476.685,149.338 478.349,150.548 "
         id="polygon3098"
         style="fill:#b3b3b3;fill-opacity:1;stroke:#000000" />
      <polygon
         transform="translate(-1021.0463,-1501.6779)"
         points="467.308,253.247 466.249,254.608 466.854,256.423 467.913,257.785 469.425,256.121 470.03,254.155 468.669,252.793 467.308,253.247 "
         id="polygon3100"
         style="fill:#b3b3b3;fill-opacity:1;stroke:#000000" />
      <polygon
         transform="translate(-1021.0463,-1501.6779)"
         points="459.14,261.566 461.258,261.566 463.224,259.751 461.409,257.936 459.594,258.39 459.594,258.39 457.93,260.054 456.115,261.566 457.779,262.776 "
         id="polygon3102"
         style="fill:#b3b3b3;fill-opacity:1;stroke:#000000" />
      <polygon
         transform="translate(-1021.0463,-1501.6779)"
         points="457.174,242.206 454.149,241.601 454.149,241.601 452.788,242.811 453.695,244.172 455.51,242.962 457.779,243.567 "
         id="polygon3104"
         style="fill:#b3b3b3;fill-opacity:1;stroke:#000000" />
      <polygon
         transform="translate(-1021.0463,-1501.6779)"
         points="447.191,247.651 446.435,249.617 447.645,250.676 449.006,249.012 447.191,247.651 "
         id="polygon3106"
         style="fill:#b3b3b3;fill-opacity:1;stroke:#000000" />
      <polygon
         transform="translate(-1021.0463,-1501.6779)"
         points="431.614,237.972 431.009,237.82 431.009,237.82 429.345,239.03 429.95,240.392 428.74,242.055 429.042,243.114 431.765,243.87 434.336,242.66 435.849,242.812 435.849,241.299 433.429,240.694 434.639,239.333 433.277,237.367 "
         id="polygon3108"
         style="fill:#b3b3b3;fill-opacity:1;stroke:#000000" />
      <polygon
         transform="translate(-1021.0463,-1501.6779)"
         points="361.886,269.583 363.55,270.036 364.155,273.212 367.332,273.515 368.39,270.944 366.877,268.373 367.029,265.499 365.365,261.717 365.365,261.717 362.945,262.927 361.13,263.532 361.584,267.465 "
         id="polygon3110"
         style="fill:#b3b3b3;fill-opacity:1;stroke:#000000" />
      <polygon
         transform="translate(-1021.0463,-1501.6779)"
         points="308.495,249.466 306.528,252.038 305.016,254.004 306.074,256.877 308.495,257.785 310.763,258.692 312.881,257.18 315.452,257.634 316.813,254.458 314.696,251.735 314.544,249.466 311.822,248.559 311.822,248.559 "
         id="polygon3112"
         style="fill:#b3b3b3;fill-opacity:1;stroke:#000000" />
      <polygon
         transform="translate(-1021.0463,-1501.6779)"
         points="213.811,250.676 213.206,251.583 214.265,252.945 215.626,251.583 213.811,250.676 "
         id="polygon3114"
         style="fill:#b3b3b3;fill-opacity:1;stroke:#000000" />
      <polygon
         transform="translate(-1021.0463,-1501.6779)"
         points="378.522,199.705 382.153,199.553 380.187,197.587 383.363,197.436 384.573,198.646 384.421,195.621 385.934,194.108 384.27,192.142 385.329,190.478 387.144,192.293 389.413,192.293 389.413,190.024 392.74,191.234 394.404,189.419 396.068,187.453 398.186,187.453 401.815,185.79 404.387,186.697 408.168,186.697 410.664,184.201 413.613,184.428 414.974,186.395 418.15,186.395 419.663,187.907 422.386,187.15 426.167,187.15 428.663,184.655 431.612,183.067 435.544,181.554 439.174,181.554 441.292,184.882 441.292,188.512 438.116,191.386 435.242,194.108 431.461,194.411 426.923,196.528 422.839,195.016 420.873,196.982 416.184,196.831 410.134,196.831 407.865,199.251 403.177,199.251 399.698,201.217 400.757,203.637 398.336,204.544 395.463,204.242 392.892,204.242 392.589,205.906 389.867,205.149 389.867,207.872 387.144,209.838 384.875,211.502 384.875,208.931 383.06,210.595 383.514,213.62 381.699,213.62 380.413,212.334 380.413,213.771 380.413,216.04 379.09,214.716 377.389,216.417 375.951,217.855 373.984,217.855 372.472,219.821 370.506,223.148 367.33,223.148 364.758,225.266 364.758,228.14 362.187,229.199 361.279,232.224 359.162,234.341 359.162,238.123 358.103,240.845 359.464,244.777 358.254,248.71 359.918,251.281 360.674,254.004 359.767,254.912 357.196,256.122 357.196,254.155 354.776,252.794 354.776,252.794 353.112,252.794 351.297,250.071 350.239,250.676 347.063,247.651 344.642,245.08 345.55,242.357 347.97,241.601 348.877,240.089 347.213,238.728 347.365,235.097 346.306,234.795 345.247,232.072 342.979,231.921 341.164,229.35 341.769,226.022 344.188,222.695 347.063,222.997 347.97,224.056 349.028,224.51 349.482,222.543 352.961,221.485 355.684,218.611 353.869,216.645 356.289,215.132 359.011,216.191 359.768,213.922 359.768,211.653 363.246,211.653 364.91,213.317 366.649,211.578 367.027,209.99 370.809,209.233 369.523,207.948 366.271,206.813 366.271,205.604 370.053,204.544 373.985,203.486 375.951,201.52 378.522,201.52 "
         id="polygon3116"
         style="fill:#b3b3b3;fill-opacity:1;stroke:#000000" />
      <polygon
         transform="translate(-1021.0463,-1501.6779)"
         points="491.125,128.995 489.25,128.245 489.25,128.245 488,128.495 487.188,129.307 488.438,130.557 490.125,129.995 "
         id="polygon3118"
         style="fill:#b3b3b3;fill-opacity:1;stroke:#000000" />
      <polygon
         transform="translate(-1021.0463,-1501.6779)"
         points="520.5,125.62 517.875,125.745 517.875,125.745 516.75,126.87 517.625,127.745 518.563,128.682 520.5,126.87 "
         id="polygon3120"
         style="fill:#b3b3b3;fill-opacity:1;stroke:#000000" />
      <polygon
         transform="translate(-1021.0463,-1501.6779)"
         points="536.938,130.557 533.75,127.37 532.625,124.87 529.875,124.12 529.875,124.12 529.5,126.62 527.25,127.62 523.875,129.87 523.875,132.995 525.25,134.37 523.438,136.182 522.25,138.495 523.875,140.745 524.5,142.995 527.375,145.495 530,142.995 531.75,142.995 534.375,141.495 537.5,140.495 536.625,137.495 536.625,133.745 538.5,132.12 "
         id="polygon3122"
         style="fill:#b3b3b3;fill-opacity:1;stroke:#000000" />
      <polygon
         transform="translate(-1021.0463,-1501.6779)"
         points="522.5,144.87 520.375,144.62 520.75,147.37 520.75,149.12 523.5,149.87 524.625,150.995 526.313,149.307 527.25,146.87 525.625,145.62 522.5,144.87 "
         id="polygon3124"
         style="fill:#b3b3b3;fill-opacity:1;stroke:#000000" />
      <polygon
         transform="translate(-1021.0463,-1501.6779)"
         points="489.125,208.87 488.313,209.682 489.375,210.62 491.125,210.12 489.125,208.87 "
         id="polygon3126"
         style="fill:#b3b3b3;fill-opacity:1;stroke:#000000" />
      <polygon
         transform="translate(-1021.0463,-1501.6779)"
         points="452.625,104.745 451.125,104.12 451.125,104.12 449.875,104.495 450.875,105.87 450.875,107.12 452.625,107.12 "
         id="polygon3128"
         style="fill:#b3b3b3;fill-opacity:1;stroke:#000000" />
      <polygon
         transform="translate(-1021.0463,-1501.6779)"
         points="446.125,118.62 445.375,120.37 446.75,120.745 449.5,120.745 451.688,118.557 453.313,116.932 452.75,114.495 450.75,114.745 450.75,114.745 449.875,116.12 446.625,116.745 444.5,117.87 "
         id="polygon3130"
         style="fill:#b3b3b3;fill-opacity:1;stroke:#000000" />
      <polygon
         transform="translate(-1021.0463,-1501.6779)"
         points="442,111.62 440.375,112.495 440.375,112.495 439.688,113.182 441,114.495 443.375,113.62 443.375,111.62 "
         id="polygon3132"
         style="fill:#b3b3b3;fill-opacity:1;stroke:#000000" />
      <polygon
         transform="translate(-1021.0463,-1501.6779)"
         points="436.75,114.37 435.375,115.745 434.375,117.745 434.375,120.245 436.5,120.62 437,122.12 439.625,121.495 441.313,119.807 442.563,118.557 443.25,116.495 441.375,116.495 438.563,116.432 438.563,116.432 "
         id="polygon3134"
         style="fill:#b3b3b3;fill-opacity:1;stroke:#000000" />
      <polygon
         transform="translate(-1021.0463,-1501.6779)"
         points="432.625,125.495 431.125,125.12 431.125,125.12 430.313,125.932 430.313,127.495 432,127.495 "
         id="polygon3136"
         style="fill:#b3b3b3;fill-opacity:1;stroke:#000000" />
      <polygon
         transform="translate(-1021.0463,-1501.6779)"
         points="430.063,116.932 427.625,118.745 427.625,118.745 426.75,117.87 424,117.87 424,119.745 422.5,121.245 423.375,122.12 426.375,121.495 427.5,122.62 430.125,121.995 430.875,120.245 432.75,120.87 431.75,118.62 "
         id="polygon3138"
         style="fill:#b3b3b3;fill-opacity:1;stroke:#000000" />
      <polygon
         transform="translate(-1021.0463,-1501.6779)"
         points="441.5,97.87 440.75,99.37 442.063,100.682 443.313,99.432 441.5,97.87 "
         id="polygon3140"
         style="fill:#b3b3b3;fill-opacity:1;stroke:#000000" />
      <polygon
         transform="translate(-1021.0463,-1501.6779)"
         points="438.75,101.37 436.75,101.37 436.75,103.62 438.875,105.745 438.875,107.495 440.75,106.62 439.625,104.245 438.75,101.37 "
         id="polygon3142"
         style="fill:#b3b3b3;fill-opacity:1;stroke:#000000" />
      <polygon
         transform="translate(-1021.0463,-1501.6779)"
         points="426.25,107.87 424.5,107.87 424.125,108.245 425.563,109.682 426.25,107.87 "
         id="polygon3144"
         style="fill:#b3b3b3;fill-opacity:1;stroke:#000000" />
      <polygon
         transform="translate(-1021.0463,-1501.6779)"
         points="427.75,110.745 426.563,111.932 427.75,113.245 429.125,113.12 427.75,110.745 "
         id="polygon3146"
         style="fill:#b3b3b3;fill-opacity:1;stroke:#000000" />
      <polygon
         transform="translate(-1021.0463,-1501.6779)"
         points="428.875,105.245 428.875,106.87 430.625,106.87 430.25,104.995 428.875,105.245 "
         id="polygon3148"
         style="fill:#b3b3b3;fill-opacity:1;stroke:#000000" />
      <polygon
         transform="translate(-1021.0463,-1501.6779)"
         points="431.313,109.307 431.313,110.745 432.75,110.745 431.625,109.62 431.313,109.307 "
         id="polygon3150"
         style="fill:#b3b3b3;fill-opacity:1;stroke:#000000" />
      <polygon
         transform="translate(-1021.0463,-1501.6779)"
         points="432.75,112.62 433.375,113.245 434.5,112.12 432.75,112.62 "
         id="polygon3152"
         style="fill:#b3b3b3;fill-opacity:1;stroke:#000000" />
      <polygon
         transform="translate(-1021.0463,-1501.6779)"
         points="434.5,105.995 434.5,107.745 436,107.87 436,105.995 434.5,105.995 "
         id="polygon3154"
         style="fill:#b3b3b3;fill-opacity:1;stroke:#000000" />
      <polygon
         transform="translate(-1021.0463,-1501.6779)"
         points="432.25,102.495 433.125,104.12 433.938,103.307 433.125,102.495 432.25,102.495 "
         id="polygon3156"
         style="fill:#b3b3b3;fill-opacity:1;stroke:#000000" />
      <polygon
         transform="translate(-1021.0463,-1501.6779)"
         points="417.375,110.995 416.125,112.995 416.125,112.995 415.188,113.932 416.813,115.557 418.625,115.62 418.625,112.62 "
         id="polygon3158"
         style="fill:#b3b3b3;fill-opacity:1;stroke:#000000" />
      <polygon
         transform="translate(-1021.0463,-1501.6779)"
         points="420.25,110.995 420.875,112.745 422.125,112.745 422.125,111.245 420.25,110.995 "
         id="polygon3160"
         style="fill:#b3b3b3;fill-opacity:1;stroke:#000000" />
      <polygon
         transform="translate(-1021.0463,-1501.6779)"
         points="415.5,102.995 416.938,101.557 414.5,100.12 413.25,100.995 413.25,100.995 412,102.245 412,103.62 410.563,105.057 408,103.245 405.875,104.37 405.875,105.87 403.25,103.995 401.25,104.745 401.875,107.745 403.75,107.12 403.75,109.12 405.75,109.62 407.563,107.807 410.125,106.745 412.25,107.37 415.375,107.37 417.625,105.12 "
         id="polygon3162"
         style="fill:#b3b3b3;fill-opacity:1;stroke:#000000" />
      <polygon
         transform="translate(-1021.0463,-1501.6779)"
         points="407.25,98.307 406.125,97.87 406.125,97.87 403.375,97.87 401.75,96.245 400.625,98.495 402.063,99.932 402.625,101.62 405.875,100.495 407,101.62 409.125,100.745 410,101.62 410,99.745 408.563,98.307 "
         id="polygon3164"
         style="fill:#b3b3b3;fill-opacity:1;stroke:#000000" />
      <polygon
         transform="translate(-1021.0463,-1501.6779)"
         points="408.563,111.057 407.5,111.057 407.875,112.62 410.125,112.745 408.563,111.057 "
         id="polygon3166"
         style="fill:#b3b3b3;fill-opacity:1;stroke:#000000" />
      <polygon
         transform="translate(-1021.0463,-1501.6779)"
         points="409.5,115.495 409,114.37 409,114.37 407.875,115.495 408.75,116.37 410.875,116.87 "
         id="polygon3168"
         style="fill:#b3b3b3;fill-opacity:1;stroke:#000000" />
      <polygon
         transform="translate(-1021.0463,-1501.6779)"
         points="418.125,98.245 418.125,99.87 419.375,99.87 420.625,98.62 418.125,98.245 "
         id="polygon3170"
         style="fill:#b3b3b3;fill-opacity:1;stroke:#000000" />
      <path
         inkscape:connector-curvature="0"
         d="m -163.71326,-1431.5579 1.333,-4.833 5.084,-4.917 5.666,-5.667 2.584,-2.583 5,-2.167 3.582,-2.083 3.334,-3.333 3.417,-3.417 4.167,-1.667 3,-4.333 5.666,-1.667 3,-3.167 3.667,-1.667 2.333,-1.333 2.667,2.667 3.833,-1.167 3.417,2.583 2.250001,-2.25 4,-2.167 0,-2 -4,0.833 -4.667001,-0.333 -3,-0.833 1,-3 3.167,-2.167 -2.667,-0.667 0,-1.5 1.834,0.168 0.333,-3 1.667,-2.333 2.333001,-2.333 4,-1.5 1.167,0 3,-4.167 c 0,0 2.833,-0.833 3.833,-1.833 1,-1 0,2.833 0,2.833 l 2.167,1.833 1.666,1.667 -1.833,3.833 c 0,0 2.5,0 3.5,-1 1,-1 0,2 0,2 l 0,3.5 -3.833,2.5 3,0.5 1.833,-1.833 3.917,1.5 0,-1.75 3.083,3.083 2.167,3.334 1.833,-0.5 1.833,-2.333 0,2.167 1.167,2.667 -3.5,0 0,1.333 2.833,0.833 -1.5,4.333 -3.833,0.333 -3.5,3.833 -1.833,4 -3.5,1.167 -2.5,-1 -3.167,0 -2.833,4.167 1.25,2.5 0,4.25 -2.75,2.75 -2.167,-1.667 -2.167,1.667 -3.166,0 -1.834001,-1.5 -1.666,-1 -0.25,1.583 1.25,1.25 -1.5,0.667 -1,1 2.916,0.5 0,2.25 2.250001,2.25 3.667,-1 2.5,0 0.166,3.167 1.5,-1.5 2.584,2.584 2.75,2.75 1.333,4.833 0.667,3.833 -2.667,4.333 -2.5,0 -3.5,1.5 -1.166,2.666 2.833,-1.167 1.833,0 -2.666,3.168 1.666,1.666 2.167,-0.833 0,-3.167 2,-1.5 3.583,-0.083 2.084,-2.083 1,-1.667 2.5,0.167 2,-0.333 3.666,-0.167 0,2.333 3,0 0.834,-1.583 2.916,0 1.75,-1.75 2.167,-0.333 1.833,1.5 2.667,-2 1.25,2.917 2.417,2.417 0,3.5 -3.334,1.333 -2.166,4.665 -3.5,0 -1,1.5 3.916,2.583 -1.25,1.25 2.834,4.334 1.166,5.333 0,6 1,4.667 1.667,4 0.834,5.333 1.666,5.167 3.167,2.833 0,4.833 1.667,6.667 2.833,3.167 1.83305,1.833 -2.83305,2.5 -3,-1.5 -4.167,1.333 -2.166,5 -3.5,5 1.833,1.834 -1.333,4.667 0,2.5 2.833,4.333 0,2.667 -3.167,-1.5 -2.333,-2.334 -2,0.167 1.833,4.833 0,3.167 3.083,1.417 -3.083,3.083 -2,0 0,4.333 -1.833,1.833 2.5,4.167 2,2 2.333,2.333 3.167,3.167 0.666,4.667 0.5,3.667 4.584,2.416 2.75,2.75 4.66605,0 -1.25,-2.833 0,-1.417 1.584,-1.583 1.167,-2.5 4.333,4.333 0.833,3.833 4.333,3 4.292,0.958 1.708,-1.708 2.75,0 3.25,3.25 -1.333,3.167 -3.333,1 1,4 3.5,5.833 3.083,0.75 2.417,2.417 5.6660005,-0.667 3.334,2.667 1.166,3 -2,1.333 -2.833,1.833 -1.667,3.667 1.167,6.667 3.333,5.167 2.91699996,1.083 1.417,1.417 4.83300004,1.167 0,2 -3.667,0.5 0,3 -1.33300004,3 1.66700004,6 2.832,1.167 4.334,4.333 3.1669995,3 0.667,5.333 1.666,7 0.834,4.5 0,3.333 -1.834,-2.5 -4.8329995,0 -3.083,-1.583 -2.417,-2.417 -3.33300004,0 -2.99999996,-3 -5.834,-2.667 -5.5000005,-2.333 -6.333,-3.333 -1.833,-2.5 -3,-2 -3.334,-0.667 -7.166,-2.167 -4.667,-2.5 -4.50005,-3 -2.167,-4 -4.833,-4.833 -3.333,-3.5 -10e-4,-3.5 -2.333,-2.333 -0.5,-3.833 -2.833,-4 -3.084,-0.667 0,-1.417 1.417,-1.417 1.167,-2.5 -1.583,-2.75 1.5,-1.5 1.25,-1.25 -1.667,-5 -0.833,-5.333 -2,-6.167 -3.167,-4.167 -1.333,-5.5 -1.5,-5.167 -1.667,-4.167 -2,-6.167 -2,-1.667 -0.167,-3.333 1.167,-4 0,-2.333 0,-2.833 -2,-2 -2.167,-4.167 -2.166,0 -2.084,-0.75 -1.916,-1.917 -2.334,-3 -3.5,-2.167 0,-3.833 3.167,-2.999 -1.084,-1.084 -2.583,2.583 -3.666,2 0,3.5 -1,2.667 1.999,1.833 2.917,2.917 2.75,2.75 3.334,0 -0.334,2.167 -1.5,-0.167 -1.583,2.25 2.083,2.083 0,5.333 1.667,4 0.333,6.333 -1.166,3.836 -1.334,-3.333 -3,-1.5 10e-4,4.167 -2.5,-2.5 -1.667,-1.667 -1.334,-2.833 -4.666001,-4.333 1.333001,3.667 -1.333001,4 -4.5,0 0,2.667 -1.5,5.5 -1.834,2.167 0.167,7.333 3,2 -0.5,4.667 3,4.667 0,5 0.917,6.583 2.750001,2.75 0,3 2.333,2.333 2.167,-0.333 1.916,-1.75 1.417,-1.417 2.5,0 -0.167,3.167 -2.666,0.833 0,4.5 -5,0.833 1.166,5.833 -0.5,2.5 -3.166,1.332 0,3.5 -1.167001,3.167 c 0,0 -3.917,0.917 -3.167,0.167 0.75,-0.75 -1.5,-1.5 -1.5,-1.5 l 0,-2.167 0.667,-2.167 2.75,-0.917 -1.25,-1.25 -3,1.167 -3.167,0.5 0,1.5 -4.666,2.167 -2.334,2.833 -2.666,0.667 -2.167,2.167 -0.833,2.5 0.832,3.167 1.834,1.833 -2.166,2.333 -3.5,-1.333 1.083,3.583 -2.583,2.583 -2.334,2.167 -2,0 -2,1.833 1.334,2.167 1,1 -2.834,1.833 -3.833,0 -3.75,3.75 -2.417,2.417 -2.667,4.5 -2.833,2.833 -2.833,5.667 -0.5,5.5 2.667,5.333 -2.5,2.5 -0.833,5.333 1.499,3.833 2.334,2.333 -2,3.333 0,4.5 0,6 -1,4.167 0,5.667 1.667,1.833 0,4 0,4.5 -1.5,5.667 0,4.667 -2.5,4.167 0,4.166 -1.334,3.667 1.5,3.375 2.542,0 1.958,-1.958 2.749,0 2.168,-2.168 2.416,-2.416 1.667,1.667 2,1 0,2.167 1.584,2.916 2,2 1.75,-1.75 0,-2.666 -2.334,-1 0,-2.5 1.834,-2 0,1.666 2,1.5 1,-0.333 1,1 0,3 0,2.167 3.333,-1.333 0,-1.666 1.833,-2.5 1.167,-1 1.833,1.333 0.417,-2.75 -1.583,-1.583 -1.5,-2.834 -1.834,-3.333 3,-1.666 1.834,-1.834 3.666,-0.833 4.334,0 3.583,0.417 1.583,1.583 c 0,0 3.834,-0.667 4.667,-0.667 0.833,0 3.166001,-1.001 3.166001,-1.001 l 2.084,2.084 -1.584,1.584 -1.166001,1.166 -1,1.834 2.833001,0 3,0 0.667,2.166 2.5,2.5 3.084,-0.416 1.583,1.583 1.666,3.167 0.5,6.333 2.167,6.667 3.416,4.916 4.25,4.25 1.667,1.668 0.833,2.832 3.334,3.334 2.333,4 0.834,2.334 3.083,4.75 2.583,2.582 0,7 -1,6 1.834,6 -0.167,6.166 1.833,4.834 1.333,5.334 1,4.832 1,6.5 0,6.33403 -1,3.334 0,6.5 0,8 -1,6 1,6.166 -0.333,8 0,3.834 -3.333,5.5 -2.167,4.666 -2.5,4.668 -2.167,0 -4.166,1.665 -3.5,2 -2.417,-1 0,-2.25 -1.25,-1.25 -1.251,2.834 0,3.082 -1.416,-1.416 -2.166,-2.166 0,1.666 -0.667,4.166 0.667,2.834 -0.917,3.25 -1.417,1.416 0,1.668 0,2.666 -3.166,-0.166 -1.334,-1.334 1.167,-3.834 2,-4 0,-3.332 -1.75,-3.918 -3.583,-3.582 -1.834,-1.834 -1.5,-3.834 -3.166,-3.166 -3.000001,-1 -0.084,-3.25 2.084001,-2.084 1.833,-1.832 0,-3.334 2.333,-2.334 2.667,-1.332 2.751,0.916 2.416,-2.416 1.5,-3 -2.667,-4.168 1.333,-3.5 -1.666,-3.666 -0.334,-3.834 -2.333,-3.166 0.667,-2.666 -1.834,-3.168 -0.833,-3.666 -3.333,-3.50003 2.5,-2.5 0,-3.668 -2.083,-2.082 -2.417,-2.418 -0.667,-2.166 -2.833001,0 -4,2.166 -1,3.334 -2.667,4.334 -3,3.832 1.334,4.16803 -3.5,2.832 -3.5,2 -3,1 -0.834,3 -3.166,0 -3.167,-1.832 -2.333,-0.834 0,-3.834 -2.667,-2.332 -2.167,-2.168 -3.583,-0.91603 -1.917,1.91603 -3.833,-1 -3.167,-0.83203 -4.833,0.666 -4.5,0 -1.833,1.83403 -5,1.832 -5,-1 -2.083,-4.08203 -2.417,-2.418 c 0,0 -2.83301,-1.666 -2.83301,-2.334 0,-0.668 -3.167,-3.166 -3.167,-3.166 l -4,-0.666 -1.667,-4 -3.834,-3 -2.666,-2.666 -3.667,-1 -1.333,-3.5 -3.334,-1.5 -2,-2 -6.666,-0.668 -3.5,0 -4,2.168 -5,-0.834 -3.834,1.334 -4.166,0 -5.668,4.166 -2.666,2.666 -5.25,3.084 -2.583,2.584 -1.833,5.5 -1.334,3.332 1.834,2.334 2.583,-2.084 2.083,2.084 2.334,2.33403 1.333,5.332 -1.333,2.834 -1,7.166 0,4.5 -1.834,4.668 2.5,4.832 1.5,1.5 0,4.668 -3.5,1 -2.25,5.25 -3.25,3.25 -5.5,2 -6.166,-0.5 -4.5,-0.834 -3.333,2 -4.667,2.666 -3.5,-1.832 -3.167,-1.168 -4.166,1.834 -3.5,3.5 -2.5,2.5 -1.417,4.916 -2.917,2.918 -3.833,2.666 -5.333,2.5 -4.084,4.084 -2.083,2.082 -5.333,0 -4.834,1.5 -6.833,0 -5,0.668 -4.5,-1.5 -1.334,-2.5 -2.333,-2.334 -6.333,0 -5.833,-0.834 -2.334,-1.5 -7.666,1.084 -4.751,0 -3.91601,3.916 -4.333,1 -4.167,1.168 -6,-0.5 -4.082,-1.75 -2.584,-2.584 -2.416,-5.084 -3.084,-3.082 -4.334,-1.666 -4.166,0 -4.75,1.248 -3.25,-3.248 -6.5,0 -3.834,-2.834 -1.917,1.916 -2.583,2.584 -2.083,4.25 -2.25,2.25 -0.667,4.334 2.084,2.5 0,3.748 2.916,2.918 0,4 -3.916,2.584 -3.75,3.75001 -3.167,0 -4.833,0 -4.5,-1.16801 -4.667,0.83401 -3.333,-1.00001 -4.834,-1.668 -2.666,-2.666 -3.167,-3.166 -3.833,-1.166 -4.5,1.832 -2.834,-2.834 -3.583,-1.582 -2.917,2.916 -3.666,0 -1.167,3.5 -4.333,0 -5.5,3.5 -3.334,3.33401 -3.333,0 -0.667,3.5 -3.916,0.916 -2.75,2.75 -5,-0.166 -4.167,2.332 -2.167,2.168 -4.833,-0.834 -1.5,-2.5 -1.833,-3.334 -0.917,-3.416 -2.583,2.584 -4.333,1.666 -4,-1.334 -4.5,-1.166 0,-4 -3.5,-2.16601 -1.333,-3 -2.833,-1.834 -0.667,-4 -2.333,-2.166 -3.12501,-1.375 -2.042,-2.041 -4.25,0 -2.083,2.082 -4.167,0.668 -1.668,-1.668 -3.666,0.666 -2,-2 -1.833,-1.832 0,-2.5 -1.833,-2.166 -2.668,0.832 -1.833,3.834 -3.667,0.666 -2.167,-4.332 -1.167,-3.834 -0.833,-4.334 -2.833,-5 0,-4 -2.667,-2.5 0,-5.5 -2,-6.666 -2.833,-2.834 -1.833,-1.832 -1.917,-4.084 -2.083,-2.084 -2.833,-1.166 0,-3 2.333,0 2,-2.666 -0.833,-2.334 -3,0 -2.5,2.5 -3.5,0.166 -2.583,0.084 -2.75,2.75 -4.667,1.334 -4,2.166 -1.834,-2.666 -3.5,1.666 -2.833,0 1,-4.5 4,-1.834 0,-2.332 -3.333,0 -3,-1.834 -1.833,1.834 -3.333,-1 1.083,-3.918 -2.417,-2.416 -3.333,2 -3.667,-1 -0.917,-2.916 2.084,-2.084 0,-3.166 0.833,-2.33403 -1.333,-4.166 -2.5,-1.168 -3,0 -1.5,-3 -4.167,0 -3.333,-2 -3.667,-0.334 -2,2.834 -4.167,0 -3.667,1 -3,-1.666 -3.667,0.666 -4.5,0 -4.333,-2.25 -1.75,0 -1.917,1.916 -3.333,0.668 -3.167,-1.668 -2.833,0 -3.833,-1.166 -5.667,0.166 -4.167,-0.832 -3,0.832 -2.667,-2.332 -3.833,-2 -3.5,0 -1.167,3.666 1.167,2.5 -2.333,2.334 1.833,1.166 1.833,1.834 2.25,2.25 -2.083,2.08203 -2.333,0 -2.833,-2.83203 -4.333,0.166 -2.83301,1.166 1.16701,4.16803 -1.16701,3 -2.833,0.832 -3.333,-0.832 -1.333,3.5 1.083,2.416 2.333,2.334 1.583,1.582 0.667,2.834 2.333,2.334 -2.333,3.166 -2.167,2.166 -3.667,0 -3.75,0.25 -1.917,-1.916 -1.333,-2.709 -1.708,0 -1.792,1.793 -2.917,0 -3.25,-3.25 -0.625,-1.875 -2.458,-2.459 0,-4.25 -2.084,-2.084 -3.833,0 -3.167,1.168 -1.167,-2.5 -3.167,-2.5 -2.833,-1.5 -3.833,1.834 -3.5,0.5 -2.833,-0.834 -2,-3.834 -2.833,-2.50003 -2,3.33403 -2.167,0 0,-2.666 2,-2.00003 -1.333,-2.834 -1.667,-4.334 -0.667,-4.5 -2.5,-3 -4,-1.5 -1.166,-2.832 -2.167,-2.168 -4,0.668 -2.333,0 0,-3.168 -1.167,-3.332 -4.083,-0.752 -2.083,2.084 -3.833,1.334 -3.333,-1.834 -3.5,0 -1.667,2.5 -3.5,0 -3.833,0 -0.835,1.834 -2.167,2.166 -0.333,3.166 -4.083,-0.748 -2.417,-2.418 0,-3.334 1.084,-3.25 -1.75,-1.75 -2.834,0 -1.167,2.668 -2.167,1.582 -3.25,0 -2.583,2.584 -2.167,2.166 0,3 -2.833,1.168 -3,-0.168 -2.167,2.168 -2.667,1.832 1.083,3.25 2.417,2.418 -1,4.332 -2.167,2.168 2.167,1.33203 3.167,3 2,2 -0.833,4.334 0.917,5.666 0,4.584 -1.75,1.75 -1.667,-1.834 -2.5,-0.332 0.333,3 1.417,2.916 2.083,2.084 -1.667,1.666 -2.833,0.334 -2.333,0 -1.833,0 -1.5,0 c 0,0 -2,0.25 -3.583,0.25 -1.583,0 -1.25,-1.25 -1.25,-1.25 l -2.5,-0.668 -1.166,-1.166 -3,-0.5 0,2.334 -2.333,1 -2.833,3.332 -3.167,0 -3.5,1 -2.042,-0.541 -1.708,1.709 0,2.75 1.75,1.75 1,3.166 -0.833,3.166 -0.75,2.918 -1.917,1.916 0,1.166 -1.667,1.5 -3.667,6 0,4.668 1,5.666 -0.667,4.334 0.333,5.332 -4,1.834 -2.667,-1.166 -3.833,1.332 -3.667,-0.832 -0.5,-3.168 -1.833,-5.5 -0.333,-4 -2.667,-1.832 0,-2.168 -1.333,-3.5 -2.333,-3 1.5,-2.5 1,-2.832 -2.5,-2.668 -0.833,-3 -2.833,-0.332 -0.583,-1.75 -2.085,-2.084 -3.667,-0.5 -2.333,-2.334 -0.667,-5.332 -2.333,-2.168 0.667,-3.332 -2.833,-2.334 -1.5,-3.832 -2.5,-1.168 -3.667,-2.5 -1.167,-4 -2.5,-3.832 -0.833,-3.334 -1.833,-0.334 -1.333,-1.666 -1.667,-2.334 -2.167,0.334 -1.333,-4.00003 0.5,-7.666 -0.667,-5.668 -1.333,-2.832 -1.667,-2.5 0.333,-5 -2,-1.834 -1.333,-2.666 1,-3 -0.833,-3.334 1.833,-1.834 2,-0.332 2.667,3.332 2.5,0.834 1.167,-2.5 2.833,-1.166 3.833,-0.168 2,0 2.5,0.834 0.5,-4.166 -1.333,-2.5 0.667,-2.168 2,0.334 1.833,1.334 2,1.832 1.5,-1.5 2.333,1 3.833,0.5 2.833,1.168 0.667,-3 -2,-1.5 -2.833,-0.668 -1.833,-1.832 -2,-0.668 2.5,-2.666 3.666,-1.666 3.167,1.332 2.833,-1.166 2.667,2.834 4,4.332 3.667,-3.666 2.5,-1.5 -0.667,-3.668 2.333,-2.332 2.333,0.334 -0.167,-2.668 6.167,-0.832 1.167,-2.834 1.333,-1.666 -2.833,-1.334 0,-3.5 -2.667,-3 -1,-3.834 -2.5,-1.5 -2.667,-3 1,-3.5 -1,-5.167 -3.166,-2.332 -3.667,-2.833 -1.167,-3.834 -2.5,-2 -0.833,-2.333 2.167,-2.5 1.667,-3.667 0,-3.5 -1.833,-3.333 -1.833,-2.833 1.667,-1.333 1,-2.5 2,0 1.5,-1.333 1.167,-4.5 0.333,-2.667 -1.334,-3.333 -1.834,-1.834 -2.5,-0.333 -1.833,-2 -1.5,-2.167 -2.25,1.916 -1.75,-1.75 -1.5,-2.5 1.5,-2.667 3.167,-3.167 2.167,-2.5 0.833,-3 2.5,-0.167 1.833,2 1,2.5 3.333,1.168 3.167,-1 0.833,-3.333 1,-3.667 -2.5,-2.5 1.667,-1.167 -0.167,-2.833 1,-4 1.833,-4.333 1.333,-3.667 3.333,-1 1.167,-2.5 3.167,-2.667 0,-5.667 -2.833,-2.666 -3.167,-0.833 1,-2.5 0.833,-2.667 -2.333,-2.333 -1.5,-3.333 0.5,-2.333 3.167,-3.167 1.833,-3.333 -0.833,-3 2.667,-0.667 4,-2.5 0,-3.5 1.667,-2 4.166,-0.167 1.833,-2.167 0.167,-2.5 3.5,-1.333 2.833,-3.833 3.833,0.167 3.333,-2 4.5,1 0.667,-2.5 1.5,-1.5 2.833,1.333 2.333,2.5 3.668,1.166 1.333,3 1.333,3.333 2,-2 -0.333,-4.833 -3,-2.667 0,-5.667 2.667,-0.666 0.833,-0.833 -3.667,-1.5 -2.167,-2.5 37.333,-0.167 7,-2.5 0,-4.333 1.167,-11 4.667,0 4,-3.167 0,-4.333 3,-1.167 0,-5.667 2.667,-0.167 5.833,-4.667 2.833,1.333 6.167,-11.5 0.417,-3.083 5.083,-5.083 8.5,0 2.667,-4.667 0,-9 5.333,-2.667 7,-3.5 4.833,1.833 2.834,0 2.333,2.333 2.862,-1.994 -0.696,3.494 2.833,-0.333 4,0.167 0,2.667 0.833,3 -1.833,-1.167 -1.917,-1.917 -1.75,1.75 0.833,3.167 0,3.167 2.833,1.5 2.167,2.167 0,3.5 2.417,1.167 0,3.917 2.75,2.75 1.333,4.667 0,4.833 -0.833,4.167 1,2.333 0.083,5.083 2.917,2.917 -0.167,3.667 -0.667,6 -2.917,5.083 -4.417,4.417 -4.667,0 -5.167,1 -4.5,-1.667 -4.917,-2.75 -3.079,-3.084 0,-4.5 -3.167,-3.167 -1.5,-3.5 -1.167,-3.333 -2.166,-3.666 -1.167,-6.167 -2.333,-1 0.75,-3.75 1.917,-1.917 -2.333,-2.333 -1.083,2.917 -1.583,1.583 0.667,3.667 0.083,4.25 -1.833,1.833 2.417,2.417 -0.667,3.667 -2.333,5.167 -4.083,1.25 -3.25,3.25 -1.25,5.917 -3.083,3.083 1,3.5 1.5,4.333 -2.417,4.25 3.417,3.417 3.664,3.666 4.167,-3 0.833,-4.166 -2.167,-2.167 0.333,-3.667 0,-2.833 2.833,-3 2.833,0 1,7.5 0.917,4.917 2.917,2.917 1.833,3.833 4.75,1.417 1.417,-1.417 -1.167,-2.833 2.833,-2.333 0.167,-5.833 5.167,0.833 4.833,-1.833 4,2.167 4.5,-1.417 3.083,0 1.918,1.915 2.833,4.333 -2.333,2.333 0,3.667 2.083,-2.583 2.917,-2.917 4.00001,-0.833 3.333,-4.833 0,-4.167 1.333,-2.833 4.333,-2.167 0,-2.667 4.167,-2.5 0,-4.167 -0.667,-4 2.833,0 0.917,2.083 3.75,3.75 2.833,4.333 0,5.833 -1,3 -1.5,1.5 -2.5,-2.5 -3.5,-0.833 -5.333,1.833 0,4.333 1.333,4 0,3.333 3.833,1 3.667,1.667 4.167,-2 0,-3 4.333,-1 4.167,2 -0.667,-2.667 6.5,1.167 3.5,-0.667 6.333,0.833 3.667,0 1.833,3.333 1.667,0 0,-3 5.333,-1.667 2.835,0 1.167,4.333 -3.167,0 -1,3 -2.5,0.833 3.833,3.5 2.667,0 5,-2.167 4.75,0.917 5.167,5.167 1.75,-1.75 3.5,0 4.417,-1.417 1.75,1.75 -0.5,2.333 -2.667,1.833 0,2.833 3.167,2.667 0.25,-3.083 1.417,-1.417 3.333,0.833 0,-2.667 3.167,-0.5 0.667,-4 -0.5,-4.833 3,-1.5 2.583,-0.75 3.083,3.083 1.333,-1.333 3.417,4.25 3.917,3.917 3.167,3.167 2.083,4.25 3.917,3.917 2.667,4.167 2.833,3.833 0,3.333 2.332,3.671 3.333,-2 0,-3.5 3.833,-3.5 -2.667,-0.833 -1.833,-4.333 0.667,-4.667 -3.167,-2.167 -1.75,-3.583 1.583,-1.583 3.333,-1.667 0,-2.667 0.833,-4 1.5,-2 0,-2.5 -2.167,-0.667 1.167,-3.333 1.833,-2.333 3.333,-1.167 3.583,-1.75 1.25,-1.25 2.833,-2.833 2.167,-4.833 1.667,-4 1.833,-4 3.167,-1.667 2,2.833 4,0 2,2 3.5,0 1.5,5.667 -1.667,1.667 -0.75,6.083 -4.75,4.75 -1.333,4.333 2.833,2.5 -1,5.667 -0.833,4.5 -3.333,5 -1.167,7.167 -1.833,6.333 -1.333,3.167 1.25,4.417 2.917,2.917 -0.5,2.667 -3.667,2.833 -0.667,6.167 -3.667,1 -4.333,4.333 -2.5,3.667 -2.333,1.333 -4.167,-0.833 -2.5,1.667 -2.75,-1.75 -1.75,-1.75 -2.5,-0.833 0,3.167 2.5,3.833 2.5,1.167 3.333,2.333 2.833,-0.167 2,2.833 3,0 c 0,0 1.25,-2.25 0.583,-2.917 -0.667,-0.667 1.75,-1.75 1.75,-1.75 l 2.167,0 1,-1 4.167,-1.167 3.333,-1.833 0,-3.5 1.5,-1.5 2.583,-2.583 2.083,-2.083 1,-4 -0.833,-3.5 -0.333,-3.167 2.25,-2.25 2.25,-2.25 3.5,0 3.833,-0.5 1.083,3.25 1.583,1.583 2,5.167 -2.663,2.665 0.167,4 0,2.5 3.333,3.333 3.833,0.833 0,-2.333 -3.75,-1.083 -1.417,-1.417 0,-2 -0.333,-3 2.667,-0.833 1,-2.167 -1,-3.167 1.167,-2.667 -1.667,-3.333 -2.167,-2 -1.333,-1.333 -4.083,-1.417 -2.333,-2.333 -1.917,1.917 -2.5,1.167 -1.333,-1.833 -3,0 -0.5,-3.167 2,-2 -0.5,-5.333 2.333,-3.667 1.5,-4.333 3.333,-3.333 -1.167,-3.667 -1,-3.167 0.417,-3.416 -2.417,-2.417 2.667,-2.667 4.167,-4.167 3.5,0 2,-3.167 1.333,-3.5 -1.167,-2.833 1.167,-2.5 2.667,0 -0.833,3.5 0,4.833 -0.667,4.333 -3,3 0,4.167 0,3 3.5,2.667 2,1.667 2.583,-1.583 2.583,2.583 2.833,2.667 0,-2 -1.083,-2.583 -1.917,-1.917 -3,-1.5 0,-1.333 -2.5,-2.5 -1.166,-3.668 3.5,-2.333 1.667,1.667 2.667,2.667 2.00001,-1.833 -0.66701,-2.167 -0.25,-1.917 1.91701,-1.917 3.333,0.667 2.75,-0.417 2.25,2.25 4.333,2.333 -1.167,3.333 1.083,1.083 2.917,2.917 4.5,0 0.667,-2.667 -1.833,-2.5 0.167,-2.333 -3.167,-1.167 -2.333,-3.833 -1.334,-1.333 1,-4 1.5,-3.333 -1.333,-1.333 -0.833,-4.167 3.333,-3 7.833,0 4,1.5 0,-1 6.5,0 4.333,-1.833 3.166,0 1.667,-1.667 -1.667,-2.5 -2,-0.667 -1.667,-1.667 c 0,0 0.667,-0.667 1.917,-1.917 1.25,-1.25 1.25,1.25 1.25,1.25 l 2,-0.5 -1.333,-1.5 0.917,-2.083 -1.417,-1.417 1.667,-2.333 2.333,-1.833 -2.333,-0.167 -0.167,-2.5 4.667,0.167 1.833,-3.833 4.583,-1.75 1.75,-1.75 6.25,-0.917 1.583,-1.583 4.5,-1.333 1,-1.167 -3,-1 1.667,-1.667 4.333,-1 3.667,-0.5 0.833,-1.833 3,-0.5 -1.583,3 0,2.417 2.083,-2.083 5.168,0.166 0.5,-2.667 3.333,-0.667 3.333,0.667 -1.5,-2 -2,-1.5 -1,-1.833 3.667,0 3.833,-1.167 1.167,0 -0.333,-2.833 -1.334,-1 0,-4 0.834,-2.667 2.5,-6.167 3,-2.167 2.666,-2.833 3.334,2 2.5,-0.333 0.75,3.417 -2.584,2.583 -2.166,2.833 5.291,0.292 1.042,-1.042 3.25,0 2.417,2.417 -2.167,2.167 c 0,0 -0.167,2.167 0.833,2.167 1,0 3.667,1.167 3.667,1.167 l 0.833,-2.833 -1.5,-1.5 3.667,-2 3.333,0 3.417,-2.417 1.917,1.917 2.583,-1.25 1.917,1.917 1.666,3.333 2,1.667 1.167,-1.333 1.75,1.75 2.25,2.25 -0.333,3.5 -3.334,-0.667 1.334,1.333 3.333,1.833 2.083,3.583 -1.916,1.916 0,3.333 -1.667,2.333 -1.583,3.25 -1.917,1.917 -3.333,4 0,1.667 -1,4.667 -2.5,2.5 -1,5.167 -4,1 -1.25,3.75 -2.75,2.75 -0.667,4.333 -0.833,3 3,-1.333 -0.667,-3.333 3,-1.833 c 0,0 2.667,-0.833 4.167,-0.833 1.5,0 2,-3 2,-3 l 2.833,-2.333 2.667,-1 1.583,-3.083 -1.25,-1.25 -2,-0.167 0.167,-1.335 -0.167,-2.667 2.5,-0.167 2,0 2.833,0.667 3.334,1.333 0.666,-2 2.084,-2.917 1.75,1.75 0,3.333 2,2.833 2.333,0 -2.333,-2.165 1.583,-1.583 3.083,-3.083 4.167,-2.167 6.333,-1.167 5,-1.5 1.251,1.917 -1.167,1.167 2.75,2.75 5.166,0 0.167,-1.333 0.5,-1.833 2,3.167 3.5,-1.333 3.50001,-3 c 0,0 3.667,-0.667 4.5,-0.667 0.833,0 0,-3 0,-3 l -0.5,-3.333 -2.5,-3.833 0.667,-3.833 0.5,-2 2,2 2.083,-1.583 1.75,1.75 2.667,1.833 0.666,-2 1.334,-0.336 1.333,1.5 1.333,-1 c 0,0 -0.166,-3.083 1.084,-3.083 1.25,0 1.583,-1.583 1.583,-1.583 l 3.667,2.833 1.166,-1.167 4,1.333 -1.333,4.083 1.916,0 1.917,1.917 0,3.167 3.167,-2 1.667,1.667 0,3.667 -2.167,0.667 -1.333,1.332 2.333,2.333 c 0,0 1.833,-0.833 1.833,-1.667 0,-0.834 1.5,1.5 1.5,1.5 l 0,2.667 3.417,-0.084 3.25,3.25 2.5,1.667 3.5,0.667 1.5,-1.5 3.833,2 0.334,-3.166 -1.667,-5.5 -1,-2.5 0,-2.333 -2.167,-2.167 0,-3 4.167,0.5 2.333,2.333 3.667,-1 4.167,0 -0.834,-4.333 2.334,-4.333 4.333,-1 3.167,-0.167 3.666,1 0,-2.5 -3.916,-1.75 1.416,-1.417 1.834,-2 3.166,0.167 2.5,-2.5 -1.166,-0.667 -2.5,-2.5 -2.834,-1.5 0,-3.667 -1.166,-1 -1.667,4.333 -2,-1.333 0,-3.5 3.667,-3.333 -0.5,-2.333 -3.5,-2.167 2.166,-2.167 3.167,0 4.667,-2.333 1.333,-3.833 6.167,-2.333 4.833,-2.167 c 0,0 0.667,0.667 0.667,1.667 0,1 -3.167,2.167 -3.167,2.167 l -1.167,4.5 2.834,-1.334 2.5,-2.5 3.166,1 -0.833,6.5 2.833,-2.667 0,-3.167 -1,-5.333 0.667,-2.333 1.5,-4.167 3.5,-1.667 5,-2.167 3,2.167 c 0,0 -1.417,1.917 -2.5,3 -1.083,1.083 1.167,1.834 1.167,1.834 l 3.666,0 2.334,-2.667 c 0,0 2.666,2.833 3.166,3.333 0.5,0.5 -0.5,-3.833 -0.5,-3.833 l 4.5,-2.5 3.167,1.667 3.5,-0.166 3.167,-3.167 3.333,-4.167 0,-4.833 4.167,-6.167 3.5,-3.5 3.166,-3.833 5.5,-0.833 4.584,-0.25 2.25,2.25 4.666,4.667 4.167,-1.833 3,-2.417 3.25,0 -1.583,-1.584 0,-2.334 3.166,-3.166 0,-5.5 1.5,-2.833 2.5,0 2.167,-2.167 0,-3.333 4.167,-3 1,-4 -1.667,-1.667 0.667,-2 -2.333,-3.333 1.833,-3.334 1.75,-1.75 3.16701,3.167 -2.41701,2.417 2.50001,2.5 3.833,0 2.667,-1 3.667,-1.667 3.333,-0.833 0.833,-2.667 -1,-2.667 -1.833,-0.333 -5.667,-2.5 -4.166,0.667 -1,-2.333 -3.33401,0 0,-1.833 0.834,-3.167 3.00001,-1.5 0.333,-3.5 2.667,-1.5 2.333,0 -1,-2.833 1,-3 2.833,-4.168 z"
         id="path3172"
         style="fill:#b3b3b3;fill-opacity:1;stroke:#000000;stroke-width:1" />
      <polygon
         transform="translate(-1021.0463,-1501.6779)"
         points="880.727,390.784 879.285,392.37 879.285,394.388 879.285,396.551 881.736,395.542 883.035,396.84 884.477,395.399 885.053,392.513 883.467,390.207 880.727,390.784 "
         id="polygon3174"
         style="fill:#b3b3b3;fill-opacity:1;stroke:#000000" />
      <path
         inkscape:connector-curvature="0"
         d="m -100.23126,-1125.7469 -1.154,0.289 -0.864,-2.452 0,-2.163 3.749001,1.009 1.874,0.865 1.01,2.308 2.019,2.019 3.605,0.721 0.865,2.307 4.037,2.596 2.163,0 1.73,2.451 1.442,3.894 2.235,2.234 4.254,4.399 2.739,0.721 3.75,1.442 3.605,3.173 4.903,2.739 3.172,2.74 4.183,2.163 3.604,2.163 2.308,1.874 4.03705,1.587 -0.576,1.875 -1.44105,1.441 -2.74,0.865 -2.163,0 0.577,3.028 -0.577,2.163 0,1.73 2.451,3.75 c 0,0 2.309,2.594 1.875,3.027 -0.434,0.433 0.145,4.471 0.145,4.471 l 1.87505,1.875 2.884,2.885 2.451,1.586 3.749,0 2.163,2.162 2.451,0 1.298,2.74 3.173,0.145 1.946,-1.947 3.389,1.947 2.02,2.596 c 0,0 0.722,1.73 0,1.73 -0.722,0 -4.615,-1.875 -4.615,-1.875 l -1.658,1.658 -3.677,0 -1.153,2.957 0.721,2.883 2.307,2.307 1.73,3.75 -2.307,1.875 -1.875,-2.307 -2.451,-2.453 -4.326,-4.037 0,-2.74 -2.884,-2.883 -2.739,-2.74 -1.875,-2.451 -2.30805,-4.471 -2.884,-2.74 -3.028,-1.73 -2.884,-0.865 -2.453,-5.191 -5.335,-7.354 -4.326,-4.327 -3.604,-3.604 -3.174,-4.326 -2.019,-3.316 -5.479,-2.452 -4.326,-1.874 -2.596,-0.289 -3.461,-4.759 0,-2.162 -3.749,-3.75 -2.019,-3.749 -4.038,-1.298 1.01,-2.884 0,-2.163 3.316,1.009 0.577,-2.884 -1.946,-1.946 0,-1.082 -1.911,-1.912 -2.777001,-0.973 z"
         id="path3176"
         style="fill:#b3b3b3;fill-opacity:1;stroke:#000000;stroke-width:1" />
      <polygon
         transform="translate(-1021.0463,-1501.6779)"
         points="1042.666,451.203 1043.243,454.23 1043.531,457.115 1044.686,457.547 1044.686,455.24 1045.551,453.365 1045.551,450.77 1042.666,451.203 "
         id="polygon3178"
         style="fill:#b3b3b3;fill-opacity:1;stroke:#000000" />
      <polygon
         transform="translate(-1021.0463,-1501.6779)"
         points="1052.616,452.934 1052.616,454.23 1054.491,455.24 1054.491,453.076 1052.616,452.934 "
         id="polygon3180"
         style="fill:#b3b3b3;fill-opacity:1;stroke:#000000" />
      <polygon
         transform="translate(-1021.0463,-1501.6779)"
         points="1046.271,433.178 1047.209,434.113 1046.416,436.926 1046.704,441.252 1046.704,441.252 1048.435,441.973 1049.012,439.666 1048.146,435.053 1049.732,433.467 1049.444,430.148 1046.992,429.428 "
         id="polygon3182"
         style="fill:#b3b3b3;fill-opacity:1;stroke:#000000" />
      <polygon
         transform="translate(-1021.0463,-1501.6779)"
         points="1051.03,422.217 1050.309,422.938 1050.886,425.391 1052.04,423.66 1051.03,422.217 "
         id="polygon3184"
         style="fill:#b3b3b3;fill-opacity:1;stroke:#000000" />
      <polygon
         transform="translate(-1021.0463,-1501.6779)"
         points="1052.761,413.42 1053.481,409.671 1052.473,407.365 1053.049,404.913 1054.996,402.965 1055.5,405.634 1055.067,408.374 1055.645,411.546 1054.635,413.853 1052.761,413.42 "
         id="polygon3186"
         style="fill:#b3b3b3;fill-opacity:1;stroke:#000000" />
      <polygon
         transform="translate(-1021.0463,-1501.6779)"
         points="970.709,198.27 970.421,201.154 972.151,202.308 973.305,203.75 973.449,206.345 975.757,207.21 975.18,204.615 974.17,202.596 975.18,199.279 975.18,195.242 972.439,194.088 970.709,195.098 970.709,195.098 "
         id="polygon3188"
         style="fill:#b3b3b3;fill-opacity:1;stroke:#000000" />
      <polygon
         transform="translate(-1021.0463,-1501.6779)"
         points="1032.717,213.123 1034.88,210.96 1032.14,210.095 1029.399,211.249 1026.804,210.239 1026.804,210.239 1024.785,210.96 1025.795,213.123 1029.256,213.123 "
         id="polygon3190"
         style="fill:#b3b3b3;fill-opacity:1;stroke:#000000" />
      <polygon
         transform="translate(-1021.0463,-1501.6779)"
         points="1041.298,325.529 1040.072,322.572 1038.054,320.553 1038.197,317.958 1036.756,316.516 1036.756,316.516 1035.891,319.111 1034.521,320.481 1036.107,322.068 1037.044,324.014 1036.756,326.61 1036.611,329.926 1038.125,331.44 1039.784,330.503 1039.784,327.042 "
         id="polygon3192"
         style="fill:#b3b3b3;fill-opacity:1;stroke:#000000" />
      <polygon
         transform="translate(-1021.0463,-1501.6779)"
         points="1042.956,339.011 1042.956,341.174 1044.398,341.895 1045.408,340.598 1042.956,339.011 "
         id="polygon3194"
         style="fill:#b3b3b3;fill-opacity:1;stroke:#000000" />
      <polygon
         transform="translate(-1021.0463,-1501.6779)"
         points="1054.637,381.263 1054.637,384.436 1054.637,387.031 1056.656,387.031 1056.079,384.58 1056.079,382.993 1056.079,381.119 1054.637,381.263 "
         id="polygon3196"
         style="fill:#b3b3b3;fill-opacity:1;stroke:#000000" />
      <polygon
         transform="translate(-1021.0463,-1501.6779)"
         points="1040.939,202.305 1039.065,202.738 1039.065,202.738 1037.19,204.036 1038.199,205.045 1039.569,203.675 "
         id="polygon3198"
         style="fill:#b3b3b3;fill-opacity:1;stroke:#000000" />
      <polygon
         transform="translate(-1021.0463,-1501.6779)"
         points="841.138,33.391 841.33,36.947 840.448,37.83 840.889,40.696 842.543,43.122 844.252,47.092 846.898,47.643 848.69,45.851 850.041,43.398 848.553,41.799 850.758,38.601 850.372,35.128 850.372,30.993 848.222,29.284 848.222,29.284 846.898,28.788 845.741,30 843.205,31.324 "
         id="polygon3200"
         style="fill:#b3b3b3;fill-opacity:1;stroke:#000000" />
      <polygon
         transform="translate(-1021.0463,-1501.6779)"
         points="38.427,267.771 39.75,269.941 41.074,270.841 41.55,274.07 40.386,276.505 34.828,279.311 26.411,269.306 21.541,258.137 21.541,258.137 24.135,258.719 26.358,258.084 27.205,256.443 29.216,256.761 31.096,258.64 31.175,261.207 32.71,261.684 33.028,263.695 35.41,264.119 35.939,262.213 34.643,260.916 35.754,259.805 36.469,260.52 38.745,262.425 38.745,265.283 "
         id="polygon3202"
         style="fill:#b3b3b3;fill-opacity:1;stroke:#000000" />
      <g
         transform="translate(-1021.0463,-1501.6779)"
         id="Subjects_Outline-8"
         style="fill:#b3b3b3;fill-opacity:1;stroke:#000000">
        <path
           inkscape:connector-curvature="0"
           style="fill:#b3b3b3;fill-opacity:1;stroke:#000000;stroke-width:1;stroke-linecap:round;stroke-linejoin:miter;stroke-miterlimit:4;stroke-opacity:1;stroke-dasharray:none"
           d="m 1.4632658,433.83417 -0.90788999,-0.79468 -1.14479,-0.91032 -0.84322001,-0.61441 -0.77957,-0.5225 -3.09254,-0.0774 -1.79976,0.20628 -1.52093,-0.87667 -1.4955698,-0.46411 -0.86186,-0.54148 -1.31814,1.18608 0.17744,1.65019 1.29279,0.67038 1.4955798,0.46412 0.86185,2.39793 0.17744,1.85646 -0.45627,1.49548 0.22814,2.06273 -0.63372,1.93381 -2.1292998,1.05715 -1.11534,1.16029 -1.62232,0.18048 -1.21674,1.98538 0.65907,2.42371 0.60837,1.80489 2.40813,1.59862 2.6362698,-0.28363 1.54627,-0.79931 2.33208,-1.08293 1.69837,0.46412 2.17999,1.41812 0.64612001,1.20641 0.59904,0.76127 1.11263999,1.01228 2.55817,0.88431 2.63991,0.0416 2.9768102,-0.0391 1.21572,2.50997 0.69261,1.8182 3.49618,2.25988 3.40297,0.64449 1.20584,-1.95822 2.8495,0.43927 -2.71707,-2.74654 -0.30568,-1.10652 -0.49709,-0.8408 -0.52505,-0.56077 -3.03002,-0.48319 -3.33169,-1.82721 -2.37198,-3.67328 1.47862,-2.19145 0.69123,-3.19701 -0.39375,-2.90554 -0.41956,-0.39923 -0.9488204,-0.70876 -0.1779,-0.53025 0.7227204,-3.16002 -1.69176,-1.69169 -0.0631,-2.61992 -1.9488802,-0.32301 -0.32272,1.30797 -1.60424,-0.14821 -2.09202,0.34651 z"
           id="path23925-7-8"
           sodipodi:nodetypes="cccccccccccccccccccccccccccccccccccccccccccccccccccccccccccccccc" />
      </g>
    </g>
    <polygon
       style="fill:#ffff80;fill-opacity:1;stroke:#000000"
       id="MOW"
       transform="translate(26.000002,8.0000247)"
       points="130.961,356.563 130.961,356.563 130.906,356.341 130.352,355.29 130.407,354.182 128.912,354.57 127.86,355.511 128.248,356.397 127.196,357.947 126.033,357.781 126.033,359.442 126.033,360.938 125.313,362.765 126.974,362.654 128.192,361.436 128.885,362.128 129.521,362.765 131.792,362.765 131.404,360.993 132.456,359.553 133.729,358.39 132.595,357.255 " />
    <path
       style="fill:#fc8b8b;fill-opacity:1;stroke:#000000"
       id="path26237"
       d="m 10.787071,455.35762 0.59096,2.23339 0.55199,1.54598 3.88421,-2.11305 -0.49376,-0.99752 -0.091,-0.75222 0.47428,-0.47933 1.26481,0.47492 0.69828,-0.92788 -0.83628,-1.04146 0.27417,-0.67567 0.82498,0.13864 0.16125,-1.07783 -1.57913,-0.54016 -1.74221,0.83252 -1.16944,1.20205 -1.63683,0.18633 z"
       inkscape:connector-curvature="0" />
    <path
       sodipodi:nodetypes="ccccccccccccccccccc"
       inkscape:connector-curvature="0"
       id="path8669"
       d="m 157.15794,281.91261 1.42079,3.58039 2.00804,-2.00806 -0.34099,-4.81172 -1.72388,-1.5534 1.43973,-0.53042 1.8186,0.56831 0.68198,3.82665 0.37888,4.31919 -0.68198,1.51551 -1.36395,0.68198 -0.90931,1.28818 -1.25029,0.75775 -1.66706,-0.45465 -1.2124,-1.02297 0.11366,-1.36395 0.83353,-2.87947 0,-1.2124 z"
       style="fill:#62d2c5;fill-opacity:1;stroke:#000000;stroke-width:1px;stroke-linecap:butt;stroke-linejoin:miter;stroke-opacity:1" />
    <path
       sodipodi:nodetypes="cccccccccccccccccccccccccc"
       inkscape:connector-curvature="0"
       id="MOW-8"
       d="m 154.91156,362.57002 -1.052,0.941 0.388,0.886 -1.052,1.55 -1.59321,-0.2616 -2.48563,1.64311 -3.82405,-1.55953 1.52962,3.18583 -1.29062,2.22982 3.89426,-1.28533 1.50422,0.9613 2.04341,-0.2066 1.218,-1.218 0.693,0.692 0.636,0.637 2.271,0 -0.388,-1.772 1.052,-1.44 1.273,-1.163 -1.134,-1.135 -1.634,-0.692 0,0 -0.055,-0.222 -0.554,-1.051 0.055,-1.108 z"
       style="fill:#ffff80;fill-opacity:1;stroke:#000000" />
  </g>
</svg>
